<svg width="23" height="20" viewBox="0 0 23 20" fill="none" xmlns="http://www.w3.org/2000/svg">
<path fill-rule="evenodd" clip-rule="evenodd" d="M9.11502 6.66642L12.0757 7.94155L19.6798 4.66637L16.72 3.39124L9.11502 6.66642ZM12.0757 1.39141L4.47158 4.66659L7.4314 5.9415L15.0364 2.66632L12.0757 1.39141ZM12.3368 0.0537614L21.6254 4.05387C21.8475 4.05387 22.0277 4.23478 22.0277 4.45793V15.3333C22.0277 15.6 21.87 15.8417 21.6254 15.9458L15.9608 18.3853C15.5232 18.5737 15.0364 18.2512 15.0364 17.7729C15.0364 17.5062 15.1943 17.2653 15.4383 17.1604L20.7008 14.8943V5.67738L13.4693 8.79128L13.4687 8.7917L12.6663 9.14499C12.2897 9.31076 11.8613 9.3114 11.484 9.14648L9.90567 8.45697L9.90461 8.45655L3.45058 5.67738L2.5334 5.27118C2.33086 5.18158 2.17184 5.0028 2.13362 4.7837C2.07969 4.47265 2.24572 4.17312 2.52576 4.05387L11.8143 0.0537614C11.981 -0.0179205 12.1693 -0.0179205 12.3368 0.0537614ZM11.4121 12.4706C11.4121 12.1077 11.7009 11.8116 12.062 11.8042C12.4335 11.7965 12.739 12.0971 12.739 12.4706V16.9879V18.3225V19.3329C12.739 19.5998 12.5809 19.8408 12.3367 19.946C12.2531 19.9819 12.1643 20 12.0756 20C11.9868 20 11.8981 19.9819 11.8142 19.946L2.31588 15.2381L4.03921 18.2188C4.21585 18.5245 4.11266 18.9162 3.80842 19.0937C3.70779 19.1526 3.5976 19.1806 3.48911 19.1806C3.26958 19.1806 3.056 19.0664 2.93774 18.8618L0 13.7805L5.10967 11.3598C5.42729 11.2089 5.80733 11.3459 5.95743 11.6657C6.10732 11.9853 5.97102 12.3667 5.65298 12.5173L2.63265 13.9482L11.4121 18.3217V12.4706Z" fill="#2F2542"/>
</svg>
