<svg width="20" height="20" viewBox="0 0 20 20" fill="none" xmlns="http://www.w3.org/2000/svg">
<path d="M19.5123 10.6272L10.0732 1.20066C9.73776 0.866253 9.28977 0.582959 8.72653 0.349775C8.16329 0.116258 7.64816 0 7.18147 0H1.69039C1.23204 0 0.836173 0.167371 0.502105 0.501779C0.167368 0.836521 0 1.23273 0 1.69008V7.18159C0 7.64762 0.11659 8.16276 0.349769 8.72601C0.583283 9.28926 0.867241 9.73358 1.20198 10.0593L10.6401 19.5116C10.9658 19.8373 11.362 20 11.829 20C12.286 20 12.6866 19.8373 13.03 19.5116L19.5116 13.0162C19.838 12.6905 20 12.2946 20 11.8289C20 11.3712 19.8376 10.9703 19.5123 10.6272ZM5.41926 5.41935C5.0892 5.74908 4.68998 5.91444 4.22463 5.91444C3.75827 5.91444 3.35972 5.74908 3.03 5.41935C2.69994 5.08861 2.53458 4.6904 2.53458 4.22436C2.53458 3.75766 2.69994 3.35945 3.03 3.03005C3.35972 2.69999 3.7586 2.53495 4.22463 2.53495C4.69032 2.53495 5.08986 2.69999 5.41926 3.03005C5.74932 3.35945 5.91401 3.75766 5.91401 4.22436C5.91434 4.6904 5.74932 5.08861 5.41926 5.41935Z" fill="#958AA8"/>
</svg>
