<svg width="120" height="26" viewBox="0 0 120 26" fill="none" xmlns="http://www.w3.org/2000/svg">
<path fill-rule="evenodd" clip-rule="evenodd" d="M119.034 13.8034H117.177C117.177 10.024 117.552 8.44805 115.877 8.44805C114.118 8.44805 114.483 10.3026 114.483 13.8034H112.626V10.0637C112.626 8.02346 110.71 8.32536 109.959 8.69581V13.8034H108.102V7.56169C109.276 6.98518 112.563 6.35108 113.847 7.96587C115.044 6.46024 117.984 6.59153 118.815 8.36984C119.101 8.98245 119.034 9.0583 119.034 13.8034ZM106.197 19.9001C105.488 19.9001 104.97 19.4009 104.97 18.7043C104.97 18.0077 105.488 17.5083 106.197 17.5083C106.91 17.5083 107.429 18.0077 107.429 18.7043C107.429 19.4009 106.91 19.9001 106.197 19.9001ZM106.197 17.9451C105.763 17.9451 105.485 18.2709 105.485 18.7043C105.485 19.134 105.763 19.4632 106.197 19.4632C106.632 19.4632 106.914 19.134 106.914 18.7043C106.914 18.2709 106.632 17.9451 106.197 17.9451ZM106.296 17.3454C106.275 17.3626 106.25 17.3732 106.222 17.3732C106.166 17.3732 106.106 17.3244 106.106 17.2586C106.106 17.2311 106.116 17.203 106.137 17.1823L106.431 16.874C106.455 16.8465 106.491 16.8325 106.525 16.8325C106.596 16.8325 106.667 16.8914 106.667 16.9675C106.667 17.0021 106.653 17.0371 106.624 17.0612L106.296 17.3454ZM102.756 14.0248C97.8859 14.0248 97.849 6.93663 102.756 6.93663C107.675 6.93663 107.636 14.0248 102.756 14.0248ZM103.525 8.54583C100.77 7.19297 99.8449 12.5786 102.756 12.5786C104.929 12.5786 105.079 9.31057 103.525 8.54583ZM99.2411 19.4632C99.6049 19.4632 99.7919 19.2413 99.7919 18.919V17.7717C99.7919 17.6366 99.9051 17.5255 100.053 17.5255C100.191 17.5255 100.304 17.6366 100.304 17.7717V18.9331C100.304 19.5088 99.9577 19.9001 99.2411 19.9001C98.5247 19.9001 98.1792 19.5049 98.1792 18.9364V17.7717C98.1792 17.6366 98.2918 17.5255 98.4366 17.5255C98.5744 17.5255 98.6872 17.6366 98.6872 17.7717V18.919C98.6872 19.2413 98.878 19.4632 99.2411 19.4632ZM96.9379 12.2724C97.1917 12.159 97.355 12.0449 97.4218 11.9789L98.2177 13.1908C97.7289 13.5778 97.1502 13.7804 96.5395 13.901C90.8268 15.0213 90.3994 6.97551 95.6044 6.97551C98.2046 6.97551 98.7001 8.33396 97.5946 9.20356C97.2692 8.88447 96.9873 8.68593 96.4931 8.53938C92.8338 7.44502 93.0205 14.0133 96.9379 12.2724ZM92.3593 17.5255C92.5389 17.512 92.7192 17.6162 92.786 17.7855L93.4711 19.5221C93.4814 19.5537 93.4887 19.5847 93.4887 19.616C93.4887 19.7441 93.3825 19.8795 93.2201 19.8795C93.1144 19.8795 93.0153 19.8169 92.9771 19.7164L92.8851 19.4671H91.8756L91.7802 19.7164C91.7413 19.8169 91.6429 19.8795 91.5331 19.8795C91.3747 19.8795 91.2684 19.7473 91.2684 19.616C91.2684 19.5847 91.2722 19.5537 91.286 19.5221L91.9745 17.7855C92.0346 17.6295 92.193 17.5255 92.3593 17.5255ZM92.7471 19.0335L92.3806 18.0388L92.0133 19.0335H92.7471ZM89.4488 14.0247C87.8587 14.0247 87.8458 11.6532 89.4488 11.6532C91.0363 11.6532 91.0544 14.0247 89.4488 14.0247ZM88.1538 17.7582C88.1538 17.6435 88.2526 17.5465 88.3727 17.5465H89.7035C89.8373 17.5465 89.9609 17.6606 89.9609 17.8171C89.9609 17.8792 89.9396 17.9451 89.9014 17.9971L88.8315 19.4254H89.7737C89.8904 19.4254 89.9895 19.5221 89.9895 19.6366C89.9895 19.7615 89.8904 19.8584 89.7737 19.8584H88.4292C88.2881 19.8584 88.1538 19.7404 88.1538 19.5812C88.1538 19.5221 88.1716 19.4671 88.2068 19.4183L89.287 17.9797H88.3727C88.2526 17.9797 88.1538 17.8828 88.1538 17.7582ZM86.2444 12.4544C86.5871 12.3684 86.8454 12.2187 86.901 12.1613L87.591 13.2561C87.2175 13.6227 86.4094 13.9854 85.4549 13.9854C82.5195 13.9854 83.0406 11.5317 83.0406 8.64336C82.5259 8.64336 81.319 8.79549 81.9791 7.15792H83.0406C83.0406 6.39339 82.6521 4.5128 84.898 5.38605V7.15792C86.1236 7.15792 87.6982 6.8124 86.9408 8.64336H84.898C84.898 11.3001 84.5236 12.8998 86.2444 12.4544ZM81.3543 19.8794C81.2586 19.8794 81.1632 19.8345 81.1033 19.7548L80.0588 18.3508V19.6366C80.0588 19.7688 79.9457 19.8794 79.8046 19.8794C79.6707 19.8794 79.5575 19.7688 79.5575 19.6366V17.8411C79.5575 17.6783 79.6986 17.5255 79.8856 17.5255C79.9915 17.5255 80.0972 17.5745 80.1608 17.6606L81.1632 18.9987V17.7681C81.1632 17.6366 81.2765 17.5255 81.4176 17.5255C81.5515 17.5255 81.6647 17.6366 81.6647 17.7681V19.5812C81.6647 19.7372 81.5339 19.8794 81.3543 19.8794ZM74.8684 13.3734C73.9838 12.6925 73.0602 9.26717 78.3975 9.70551C78.6627 9.72743 78.8172 9.74226 78.8617 9.75085C78.8617 8.88813 78.5755 8.27852 77.1238 8.27852C76.1065 8.27852 75.6604 8.65112 75.2797 8.8647C74.6946 8.53874 74.0955 6.97551 77.0307 6.97551C81.3633 6.97551 80.6793 9.32647 80.6793 13.751C80.2985 13.8821 76.1787 14.3838 74.8684 13.3734ZM78.8484 10.8843C78.7702 10.86 78.4792 10.8387 78.3976 10.8327C77.2469 10.7463 76.0494 10.7229 76.0494 11.8229C76.0494 12.9701 77.7626 12.9056 78.8484 12.6699V10.8843ZM74.4649 17.5465C74.6907 17.5119 74.9202 17.5953 74.9202 17.8237V19.6334C74.9202 19.7688 74.8074 19.8794 74.6662 19.8794C74.5285 19.8794 74.4157 19.7688 74.4157 19.6334V18.2399L73.7805 19.7894C73.7592 19.8412 73.7062 19.8794 73.6391 19.8794C73.5792 19.8794 73.5259 19.8412 73.5048 19.7894L72.8701 18.2399V19.6366C72.8701 19.7688 72.7568 19.8794 72.6154 19.8794C72.4818 19.8794 72.3686 19.7688 72.3686 19.6366V17.8237C72.3686 17.6714 72.4955 17.5465 72.6511 17.5465C72.8804 17.5222 73.0783 17.571 73.163 17.7717L73.6426 18.9436L74.123 17.7717C74.1791 17.6365 74.31 17.5465 74.4649 17.5465ZM66.0458 13.8034C66.0458 4.32973 65.7085 4.20016 67.0143 4.20016C67.3467 4.20016 67.6915 4.2743 67.903 4.35659V7.79633C68.8603 6.3861 72.9848 6.5595 72.9848 10.2721C72.9848 13.8597 69.6632 14.3902 66.0458 13.8034ZM69.4421 8.44804C67.5454 8.44804 67.903 10.58 67.903 12.4613C68.1862 12.599 69.3083 12.6502 69.8996 12.4222C71.6786 11.7333 71.4209 8.44804 69.4421 8.44804ZM64.7076 19.4254C64.8238 19.4254 64.9226 19.5221 64.9226 19.6366C64.9226 19.7615 64.8238 19.8584 64.7076 19.8584H63.5182C63.3626 19.8584 63.2356 19.7338 63.2356 19.5812V17.8237C63.2356 17.6714 63.3626 17.5465 63.5182 17.5465H64.7076C64.8238 17.5465 64.9226 17.6435 64.9226 17.7649C64.9226 17.8828 64.8238 17.9797 64.7076 17.9797H63.7372V18.4686H64.6831C64.7991 18.4686 64.8981 18.5659 64.8981 18.6869C64.8981 18.8049 64.7991 18.9022 64.6831 18.9022H63.7372V19.4254H64.7076ZM63.0937 13.8814C55.5706 14.5811 57.1248 10.2749 59.3127 9.80328C60.2633 9.59829 61.8573 9.67694 62.238 9.75085C62.238 8.83956 61.9086 8.27852 60.5001 8.27852C59.4818 8.27852 59.0368 8.65112 58.656 8.8647C58.0497 8.52692 57.4886 6.97551 60.4071 6.97551C64.7508 6.97551 64.0555 9.37289 64.0555 13.751C63.9248 13.7961 63.2329 13.8683 63.0937 13.8814ZM62.2247 10.8843C62.1464 10.86 61.8555 10.8388 61.7738 10.8328C60.3464 10.7257 59.4255 10.833 59.4255 11.8229C59.4255 12.9693 61.1509 12.9029 62.2247 12.6699V10.8843ZM54.0261 8.73471V13.8034H52.1689V7.73124C53.3821 6.83779 56.9583 6.49098 56.9583 7.83524C56.9583 8.17797 56.8745 8.41132 56.5603 8.72182C56.2941 8.46461 54.8766 8.26843 54.0261 8.73471ZM51.6489 19.8584H51.0026C50.8477 19.8584 50.7207 19.7338 50.7207 19.5812V17.8237C50.7207 17.6714 50.8477 17.5465 51.0026 17.5465H51.6489C52.3866 17.5465 52.8982 18.0077 52.8982 18.7043C52.8982 19.4009 52.3866 19.8584 51.6489 19.8584ZM51.6489 17.9797H51.2217V19.4254H51.6489C52.1143 19.4254 52.3866 19.0958 52.3866 18.7043C52.3866 18.2949 52.1322 17.9797 51.6489 17.9797ZM45.7869 11.2627C46.1367 12.8281 48.6381 12.7422 49.6613 12.2398L50.1652 13.5299C50.0799 13.6135 49.5191 13.7678 49.4022 13.797C42.3205 15.568 42.3699 6.93663 47.4721 6.93663C49.4737 6.93663 50.5631 8.07999 50.5631 9.50333C50.5631 11.7529 48.1729 11.2627 45.7869 11.2627ZM48.739 8.95622C48.2953 7.68652 45.7342 7.96392 45.7342 10.0506C47.8786 10.0506 49.2448 10.4036 48.739 8.95622ZM42.7917 19.6366C42.7917 19.7615 42.6927 19.8584 42.5762 19.8584H41.2317C41.0903 19.8584 40.956 19.7404 40.956 19.5812C40.956 19.5221 40.9736 19.4671 41.0091 19.4183L42.0895 17.9797H41.175C41.0549 17.9797 40.956 17.8828 40.956 17.7582C40.956 17.6435 41.0549 17.5465 41.175 17.5465H42.5057C42.6396 17.5465 42.7631 17.6606 42.7631 17.8171C42.7631 17.8792 42.7421 17.9451 42.7036 17.9971L41.6335 19.4254H42.5762C42.6927 19.4254 42.7917 19.5221 42.7917 19.6366ZM42.1393 4.35661V13.8034H40.2812C40.2812 4.9198 39.6669 3.39547 42.1393 4.35661ZM39.4192 19.4254C39.5353 19.4254 39.6341 19.5221 39.6341 19.6366C39.6341 19.7615 39.5353 19.8584 39.4192 19.8584H38.2297C38.0741 19.8584 37.9471 19.7338 37.9471 19.5812V17.8237C37.9471 17.6714 38.0741 17.5465 38.2297 17.5465H39.4192C39.5353 17.5465 39.6341 17.6435 39.6341 17.7649C39.6341 17.8828 39.5353 17.9797 39.4192 17.9797H38.4486V18.4686H39.3945C39.5106 18.4686 39.6096 18.5659 39.6096 18.6869C39.6096 18.8049 39.5106 18.9022 39.3945 18.9022H38.4486V19.4254H39.4192ZM31.9035 12.7022C31.6942 12.1261 31.7312 11.3805 31.9366 10.8843C32.5232 9.46507 35.3748 9.55037 36.4075 9.75085C36.4075 9.37675 36.4193 8.93948 35.9831 8.60427C35.4133 8.16722 34.1593 8.19794 33.4422 8.52004C33.0866 8.67841 33.1178 8.70097 32.8255 8.8647C32.2303 8.53337 31.6463 6.97551 34.5766 6.97551C38.9183 6.97551 38.2252 9.37482 38.2252 13.751C37.8444 13.8821 32.6197 14.676 31.9035 12.7022ZM36.394 10.8843C36.0135 10.7664 34.3613 10.7025 33.8802 11.0998C33.2562 11.6128 33.3318 13.3343 36.394 12.6699V10.8843ZM32.621 17.5255C32.7267 17.5255 32.8326 17.5745 32.896 17.6606L33.8986 18.9987V17.7681C33.8986 17.6366 34.0117 17.5255 34.1531 17.5255C34.2869 17.5255 34.4 17.6366 34.4 17.7681V19.5812C34.4 19.7372 34.2691 19.8794 34.0895 19.8794C33.9941 19.8794 33.8986 19.8345 33.8385 19.7548L32.7942 18.3508V19.6366C32.7942 19.7688 32.6809 19.8794 32.5398 19.8794C32.4059 19.8794 32.2929 19.7688 32.2929 19.6366V17.8411C32.2929 17.6783 32.4341 17.5255 32.621 17.5255ZM36.1765 17.5255C36.3108 17.5255 36.424 17.6366 36.424 17.7681V19.6366C36.424 19.7688 36.3108 19.8794 36.1696 19.8794C36.0358 19.8794 35.9225 19.7688 35.9225 19.6366V17.7681C35.9225 17.6366 36.0358 17.5255 36.1765 17.5255ZM44.4909 17.5465H45.4469C45.8954 17.5465 46.1248 17.8272 46.1248 18.1359C46.1248 18.4269 45.9411 18.6211 45.7194 18.666C45.9697 18.7043 46.171 18.9437 46.171 19.2346C46.171 19.5812 45.9343 19.8584 45.486 19.8584H44.4909C44.3354 19.8584 44.2084 19.7338 44.2084 19.5812V17.8237C44.2084 17.6714 44.3354 17.5465 44.4909 17.5465ZM44.7098 19.4321H45.3555C45.5459 19.4321 45.6592 19.332 45.6592 19.1654C45.6592 19.0193 45.5534 18.8949 45.3555 18.8949H44.7098V19.4321ZM44.7098 18.4718H45.3377C45.507 18.4718 45.6134 18.368 45.6134 18.2226C45.6134 18.0771 45.507 17.9692 45.3377 17.9692H44.7098V18.4718ZM47.8879 17.5465H49.0775C49.1937 17.5465 49.2925 17.6435 49.2925 17.7649C49.2925 17.8828 49.1937 17.9797 49.0775 17.9797H48.1071V18.4686H49.0527C49.169 18.4686 49.2678 18.5659 49.2678 18.6869C49.2678 18.8049 49.169 18.9022 49.0527 18.9022H48.1071V19.4254H49.0775C49.1937 19.4254 49.2925 19.5221 49.2925 19.6366C49.2925 19.7338 49.2365 19.7997 49.1763 19.8691C49.1054 19.9525 49.0244 20.0355 49.0244 20.1704C49.0244 20.278 49.0878 20.3197 49.1552 20.3197C49.2186 20.3197 49.2537 20.2707 49.3033 20.2469C49.3211 20.2368 49.3383 20.2293 49.3635 20.2293C49.4195 20.2293 49.4623 20.2707 49.4623 20.3197C49.4623 20.4272 49.2788 20.5035 49.1552 20.5035C48.9677 20.5035 48.802 20.4134 48.802 20.191C48.802 20.063 48.8585 19.9484 48.9608 19.8584H47.8879C47.7325 19.8584 47.6056 19.7338 47.6056 19.5812V17.8237C47.6056 17.6714 47.7325 17.5465 47.8879 17.5465ZM54.6393 17.5255C54.745 17.5255 54.851 17.5745 54.9144 17.6606L55.917 18.9987V17.7681C55.917 17.6366 56.0302 17.5255 56.1714 17.5255C56.3053 17.5255 56.4185 17.6366 56.4185 17.7681V19.5812C56.4185 19.7372 56.2874 19.8794 56.108 19.8794C56.0124 19.8794 55.917 19.8345 55.857 19.7548L54.8125 18.3508V19.6366C54.8125 19.7688 54.6995 19.8794 54.5583 19.8794C54.4242 19.8794 54.3112 19.7688 54.3112 19.6366V17.8411C54.3112 17.6783 54.4524 17.5255 54.6393 17.5255ZM58.1143 17.5289C58.1917 17.5289 58.2727 17.567 58.3184 17.64L58.8479 18.4753L59.3673 17.6435C59.413 17.5711 59.4908 17.5289 59.5753 17.5289C59.7201 17.5289 59.8151 17.64 59.8151 17.7548C59.8151 17.796 59.8047 17.8379 59.78 17.876L59.0987 18.9123V19.6367C59.0987 19.7688 58.9858 19.8795 58.8445 19.8795C58.7108 19.8795 58.5976 19.7688 58.5976 19.6367V18.9123L57.9095 17.8727C57.8844 17.8379 57.8741 17.796 57.8741 17.7548C57.8741 17.6435 57.9729 17.5289 58.1143 17.5289ZM66.6047 17.5255C66.7392 17.5255 66.8518 17.6366 66.8518 17.7681V19.4254H67.6531C67.7697 19.4254 67.8686 19.5221 67.8686 19.6366C67.8686 19.7615 67.7697 19.8584 67.6531 19.8584H66.6328C66.4779 19.8584 66.3509 19.7338 66.3509 19.5812V17.7681C66.3509 17.6366 66.4635 17.5255 66.6047 17.5255ZM69.5358 17.5465H70.7253C70.842 17.5465 70.9409 17.6435 70.9409 17.7649C70.9409 17.8828 70.842 17.9797 70.7253 17.9797H69.7548V18.4686H70.7006C70.8173 18.4686 70.9164 18.5659 70.9164 18.6869C70.9164 18.8049 70.8173 18.9022 70.7006 18.9022H69.7548V19.4254H70.7253C70.842 19.4254 70.9409 19.5221 70.9409 19.6366C70.9409 19.7615 70.842 19.8584 70.7253 19.8584H69.5358C69.3809 19.8584 69.2539 19.7338 69.2539 19.5812V17.8237C69.2539 17.6714 69.3809 17.5465 69.5358 17.5465ZM76.7254 17.5465H77.9147C78.031 17.5465 78.1298 17.6435 78.1298 17.7649C78.1298 17.8828 78.031 17.9797 77.9147 17.9797H76.9443V18.4686H77.89C78.0063 18.4686 78.1051 18.5659 78.1051 18.6869C78.1051 18.8049 78.0063 18.9022 77.89 18.9022H76.9443V19.4254H77.9147C78.031 19.4254 78.1298 19.5221 78.1298 19.6366C78.1298 19.7615 78.031 19.8584 77.9147 19.8584H76.7254C76.5696 19.8584 76.4428 19.7338 76.4428 19.5812V17.8237C76.4428 17.6714 76.5696 17.5465 76.7254 17.5465ZM83.2404 17.5465H84.726C84.8427 17.5465 84.9416 17.6435 84.9416 17.7649C84.9416 17.8828 84.8427 17.9797 84.726 17.9797H84.2355V19.6334C84.2355 19.7688 84.1229 19.8795 83.9815 19.8795C83.8438 19.8795 83.7312 19.7688 83.7312 19.6334V17.9797H83.2404C83.1203 17.9797 83.0214 17.8828 83.0214 17.7582C83.0214 17.6435 83.1203 17.5465 83.2404 17.5465ZM95.1317 17.5255C95.2657 17.5255 95.3785 17.6366 95.3785 17.7681V18.5797L96.1551 17.6162C96.1974 17.5603 96.2677 17.5328 96.3352 17.5328C96.4622 17.5328 96.575 17.6333 96.575 17.7582C96.575 17.8095 96.5571 17.862 96.5223 17.9034L95.8938 18.6314L96.6036 19.5013C96.6349 19.543 96.6528 19.5917 96.6528 19.6399C96.6528 19.7615 96.5468 19.8794 96.4091 19.8794C96.3352 19.8794 96.2643 19.8479 96.2185 19.7855L95.562 18.9331L95.3785 19.1478V19.6366C95.3785 19.7688 95.2657 19.8794 95.1246 19.8794C94.9903 19.8794 94.8775 19.7688 94.8775 19.6366V17.7681C94.8775 17.6366 94.9903 17.5255 95.1317 17.5255ZM102.105 17.5465H102.924C103.436 17.5465 103.714 17.886 103.714 18.2915C103.714 18.6938 103.432 19.0369 102.924 19.0369H102.324V19.6366C102.324 19.7688 102.211 19.8795 102.07 19.8795C101.936 19.8795 101.823 19.7688 101.823 19.6366V17.8237C101.823 17.6714 101.95 17.5465 102.105 17.5465ZM102.324 18.6039H102.857C103.055 18.6039 103.203 18.4823 103.203 18.2915C103.203 18.0979 103.055 17.9797 102.857 17.9797H102.324V18.6039ZM108.878 17.5049C108.998 17.5049 109.108 17.5846 109.139 17.7058L109.513 19.2172L109.916 17.7058C109.944 17.602 110.043 17.5255 110.163 17.5255C110.272 17.5255 110.368 17.602 110.396 17.7058L110.798 19.2172L111.165 17.709C111.193 17.5878 111.306 17.5049 111.433 17.5049C111.592 17.5049 111.702 17.6263 111.702 17.7612C111.702 17.7855 111.698 17.8095 111.691 17.8304L111.165 19.6366C111.123 19.7787 110.989 19.8794 110.84 19.8794H110.833C110.678 19.8794 110.548 19.7787 110.512 19.6366L110.156 18.2709L109.803 19.6366C109.767 19.7787 109.63 19.8794 109.485 19.8794H109.478C109.326 19.8794 109.192 19.7787 109.15 19.6366L108.62 17.8272C108.614 17.8063 108.61 17.7823 108.61 17.7612C108.61 17.6295 108.719 17.5049 108.878 17.5049Z" fill="black"/>
<path fill-rule="evenodd" clip-rule="evenodd" d="M13.2319 26C5.9295 26 0 20.1764 0 12.9955C0 5.82357 5.9295 0 13.2319 0C20.5434 0 26.4732 5.82357 26.4732 12.9955C26.4732 20.1764 20.5434 26 13.2319 26ZM17.518 20.7907C17.5459 20.8457 17.602 20.8825 17.6768 20.8825H19.8058C19.9366 20.8825 20.0486 20.7817 20.0486 20.6532V7.74947C20.0486 7.62119 19.9366 7.51096 19.8058 7.51096H15.4543C15.389 7.51096 15.3237 7.47443 15.305 7.41921C15.2676 7.3642 15.2768 7.29093 15.3142 7.24516C15.641 6.81412 15.8372 6.2823 15.8372 5.71352C15.8372 4.30114 14.67 3.16402 13.2319 3.16402C11.7939 3.16402 10.6359 4.30114 10.6359 5.71352C10.6359 6.2823 10.8227 6.81412 11.1589 7.24516C11.1963 7.29093 11.1963 7.3642 11.1682 7.41921C11.1403 7.47443 11.0842 7.51096 11.0189 7.51096H6.65794C6.5273 7.51096 6.42459 7.62119 6.42459 7.74947V9.84043C6.42459 9.91392 6.46176 9.96871 6.51784 9.99643C6.58316 10.0237 6.6487 10.0237 6.69533 9.97817C7.13432 9.65714 7.67581 9.47364 8.26414 9.47364C9.70209 9.47364 10.8601 10.6108 10.8601 12.0231C10.8601 13.4355 9.70209 14.5726 8.26414 14.5726C7.67581 14.5726 7.13432 14.3896 6.69533 14.0683C6.6487 14.0226 6.58316 14.0226 6.51784 14.0503C6.46176 14.0776 6.42459 14.1326 6.42459 14.1964V20.6532C6.42459 20.7817 6.5273 20.8825 6.65794 20.8825H13.2413C13.3066 20.8825 13.3627 20.8457 13.3907 20.7907C13.4186 20.7357 13.4186 20.6715 13.3812 20.6257C13.0451 20.1947 12.8584 19.6626 12.8584 19.085C12.8584 17.6727 14.0162 16.5353 15.4543 16.5353C16.8925 16.5353 18.0597 17.6727 18.0597 19.085C18.0597 19.6626 17.8635 20.1947 17.5367 20.6257C17.4993 20.6715 17.4901 20.7357 17.518 20.7907ZM9.58069 19.8369C9.7021 19.8369 9.81426 19.7817 9.87035 19.6811L15.0996 11.5281C15.137 11.4729 15.137 11.4088 15.0996 11.3536C15.0714 11.3079 15.0156 11.2711 14.95 11.2711H14.1283C14.0162 11.2711 13.9042 11.3263 13.8481 11.4271L8.61891 19.5802C8.58152 19.6354 8.58152 19.6994 8.61891 19.7544C8.64706 19.8096 8.70314 19.8369 8.76846 19.8369H9.58069Z" fill="#E32E33"/>
</svg>
