<svg width="27" height="26" fill="none" xmlns="http://www.w3.org/2000/svg"><path fill-rule="evenodd" clip-rule="evenodd" d="M13.232 26C5.93 26 0 20.176 0 12.995 0 5.824 5.93 0 13.232 0c7.311 0 13.241 5.824 13.241 12.995 0 7.181-5.93 13.005-13.241 13.005zm4.286-5.21a.17.17 0 00.159.093h2.129c.13 0 .243-.101.243-.23V7.75a.245.245 0 00-.243-.238h-4.352c-.065 0-.13-.037-.149-.092a.149.149 0 01.01-.174c.326-.43.522-.963.522-1.531 0-1.413-1.167-2.55-2.605-2.55s-2.596 1.137-2.596 2.55c0 .568.187 1.1.523 1.531.037.046.037.12.01.174a.166.166 0 01-.15.092H6.658c-.13 0-.233.11-.233.238V9.84c0 .074.037.129.093.156.065.028.13.028.177-.018.44-.32.98-.504 1.57-.504 1.437 0 2.595 1.137 2.595 2.55 0 1.412-1.158 2.549-2.596 2.549a2.64 2.64 0 01-1.569-.505c-.046-.045-.112-.045-.177-.018a.162.162 0 00-.093.146v6.457c0 .129.102.23.233.23h6.583a.167.167 0 00.15-.092c.028-.055.028-.12-.01-.165a2.483 2.483 0 01-.523-1.541c0-1.412 1.158-2.55 2.596-2.55 1.438 0 2.606 1.138 2.606 2.55 0 .578-.197 1.11-.523 1.54a.152.152 0 00-.019.166zm-7.937-.953a.324.324 0 00.29-.156l5.229-8.153a.15.15 0 000-.174.178.178 0 00-.15-.083h-.822a.319.319 0 00-.28.156l-5.23 8.153a.15.15 0 000 .174c.03.056.085.083.15.083h.813z" fill="#E32E33"/></svg>