<?xml version="1.0" encoding="UTF-8" standalone="no"?>
<svg
   xmlns:dc="http://purl.org/dc/elements/1.1/"
   xmlns:cc="http://creativecommons.org/ns#"
   xmlns:rdf="http://www.w3.org/1999/02/22-rdf-syntax-ns#"
   xmlns:svg="http://www.w3.org/2000/svg"
   xmlns="http://www.w3.org/2000/svg"
   xmlns:sodipodi="http://sodipodi.sourceforge.net/DTD/sodipodi-0.dtd"
   xmlns:inkscape="http://www.inkscape.org/namespaces/inkscape"
   version="1.1"
   id="svg2"
   xml:space="preserve"
   width="149.86307"
   height="46.517334"
   viewBox="0 0 149.86307 46.517334"
   sodipodi:docname="buykers_colour.svg"
   inkscape:version="1.0.2-2 (e86c870879, 2021-01-15)"><metadata
     id="metadata8"><rdf:RDF><cc:Work
         rdf:about=""><dc:format>image/svg+xml</dc:format><dc:type
           rdf:resource="http://purl.org/dc/dcmitype/StillImage" /><dc:title></dc:title></cc:Work></rdf:RDF></metadata><defs
     id="defs6"><clipPath
       clipPathUnits="userSpaceOnUse"
       id="clipPath18"><path
         d="M 0,198.425 H 198.425 V 0 H 0 Z"
         id="path16" /></clipPath></defs><sodipodi:namedview
     pagecolor="#ffffff"
     bordercolor="#666666"
     borderopacity="1"
     objecttolerance="10"
     gridtolerance="10"
     guidetolerance="10"
     inkscape:pageopacity="0"
     inkscape:pageshadow="2"
     inkscape:window-width="1920"
     inkscape:window-height="1017"
     id="namedview4"
     showgrid="false"
     fit-margin-top="0"
     fit-margin-left="0"
     fit-margin-right="0"
     fit-margin-bottom="0"
     inkscape:zoom="3.2128006"
     inkscape:cx="74.931209"
     inkscape:cy="23.258667"
     inkscape:window-x="-8"
     inkscape:window-y="-8"
     inkscape:window-maximized="1"
     inkscape:current-layer="g10" /><g
     id="g10"
     inkscape:groupmode="layer"
     inkscape:label="Buykers RGB (4)"
     transform="matrix(1.3333333,0,0,-1.3333333,-57.352132,155.542)"><g
       id="g12"><g
         id="g14"
         clip-path="url(#clipPath18)"><g
           id="g20"
           transform="translate(62.9126,101.1877)"><path
             d="m 0,0 -6.891,-10.94 c -0.074,-0.135 -0.222,-0.209 -0.381,-0.209 h -1.071 c -0.086,0 -0.16,0.037 -0.197,0.111 -0.049,0.073 -0.049,0.159 0,0.233 l 6.891,10.941 c 0.074,0.135 0.222,0.209 0.369,0.209 h 1.083 C -0.11,0.345 -0.037,0.295 0,0.233 0.049,0.16 0.049,0.074 0,0"
             style="fill:#e00e23;fill-opacity:1;fill-rule:nonzero;stroke:none"
             id="path22" /></g><g
           id="g24"
           transform="translate(69.4351,88.9435)"><path
             d="m 0,0 c 0,-0.173 -0.148,-0.308 -0.32,-0.308 h -2.806 c -0.098,0 -0.172,0.049 -0.209,0.123 -0.037,0.074 -0.024,0.161 0.024,0.222 0.431,0.578 0.69,1.292 0.69,2.067 0,1.895 -1.539,3.421 -3.434,3.421 -1.895,0 -3.421,-1.526 -3.421,-3.421 0,-0.775 0.247,-1.489 0.689,-2.067 0.05,-0.061 0.05,-0.148 0.013,-0.222 -0.037,-0.074 -0.111,-0.123 -0.197,-0.123 h -8.676 c -0.172,0 -0.308,0.135 -0.308,0.308 v 8.663 c 0,0.086 0.05,0.16 0.123,0.197 0.087,0.037 0.173,0.037 0.234,-0.025 0.579,-0.431 1.292,-0.677 2.068,-0.677 1.895,0 3.421,1.527 3.421,3.422 0,1.895 -1.526,3.421 -3.421,3.421 -0.776,0 -1.489,-0.246 -2.068,-0.677 -0.061,-0.061 -0.147,-0.061 -0.234,-0.025 -0.073,0.037 -0.123,0.111 -0.123,0.21 v 2.805 c 0,0.172 0.136,0.32 0.308,0.32 h 5.747 c 0.086,0 0.16,0.05 0.197,0.123 0.037,0.074 0.037,0.173 -0.012,0.234 -0.443,0.578 -0.689,1.292 -0.689,2.055 0,1.895 1.526,3.421 3.421,3.421 1.895,0 3.433,-1.526 3.433,-3.421 0,-0.763 -0.259,-1.477 -0.689,-2.055 -0.05,-0.061 -0.062,-0.16 -0.012,-0.234 0.024,-0.073 0.11,-0.123 0.196,-0.123 h 5.735 c 0.172,0 0.32,-0.148 0.32,-0.32 z m -8.983,27.713 c -9.624,0 -17.438,-7.815 -17.438,-17.438 0,-9.635 7.814,-17.45 17.438,-17.45 9.635,0 17.449,7.815 17.449,17.45 0,9.623 -7.814,17.438 -17.449,17.438"
             style="fill:#e00c19;fill-opacity:1;fill-rule:nonzero;stroke:none"
             id="path26" /></g><g
           id="g28"
           transform="translate(62.9126,101.1877)"><path
             d="m 0,0 -6.891,-10.94 c -0.074,-0.135 -0.222,-0.209 -0.381,-0.209 h -1.071 c -0.086,0 -0.16,0.037 -0.197,0.111 -0.049,0.073 -0.049,0.159 0,0.233 l 6.891,10.941 c 0.074,0.135 0.222,0.209 0.369,0.209 h 1.083 C -0.11,0.345 -0.037,0.295 0,0.233 0.049,0.16 0.049,0.074 0,0 M 6.203,5.39 H 0.468 c -0.086,0 -0.173,0.049 -0.197,0.123 -0.049,0.074 -0.037,0.173 0.012,0.234 0.431,0.578 0.689,1.292 0.689,2.055 0,1.895 -1.538,3.421 -3.433,3.421 -1.895,0 -3.421,-1.526 -3.421,-3.421 0,-0.763 0.246,-1.477 0.689,-2.055 0.049,-0.061 0.049,-0.16 0.012,-0.234 C -5.217,5.439 -5.292,5.39 -5.377,5.39 h -5.748 c -0.172,0 -0.307,-0.148 -0.307,-0.32 V 2.265 c 0,-0.099 0.049,-0.173 0.123,-0.21 0.086,-0.036 0.172,-0.036 0.234,0.025 0.578,0.431 1.292,0.677 2.067,0.677 1.895,0 3.421,-1.527 3.421,-3.421 0,-1.896 -1.526,-3.422 -3.421,-3.422 -0.775,0 -1.489,0.246 -2.067,0.677 -0.062,0.062 -0.148,0.062 -0.234,0.025 -0.074,-0.037 -0.123,-0.111 -0.123,-0.197 v -8.663 c 0,-0.173 0.135,-0.308 0.307,-0.308 h 8.676 c 0.087,0 0.16,0.049 0.197,0.123 0.037,0.074 0.037,0.16 -0.012,0.222 -0.443,0.578 -0.689,1.292 -0.689,2.067 0,1.895 1.526,3.421 3.421,3.421 1.895,0 3.433,-1.526 3.433,-3.421 0,-0.775 -0.258,-1.489 -0.689,-2.067 -0.049,-0.062 -0.062,-0.148 -0.024,-0.222 0.037,-0.074 0.11,-0.123 0.208,-0.123 h 2.807 c 0.172,0 0.319,0.135 0.319,0.308 V 5.07 c 0,0.172 -0.147,0.32 -0.319,0.32"
             style="fill:#ffffff;fill-opacity:1;fill-rule:nonzero;stroke:none"
             id="path30" /></g><g
           id="g32"
           transform="translate(91.4473,101.8098)"><path
             d="m 0,0 c 0,0.842 -0.196,1.519 -0.586,2.03 -0.391,0.511 -0.935,0.767 -1.633,0.767 -0.698,0 -1.22,-0.229 -1.57,-0.686 C -4.137,1.653 -4.312,1.083 -4.312,0.397 V -2.76 c 0.073,-0.036 0.229,-0.072 0.47,-0.108 0.24,-0.036 0.552,-0.054 0.938,-0.054 0.505,0 0.941,0.072 1.308,0.217 0.366,0.143 0.667,0.348 0.902,0.613 0.234,0.264 0.408,0.574 0.523,0.929 C -0.057,-0.809 0,-0.421 0,0 m -6.837,7.595 c 0,0.409 0.12,0.691 0.361,0.847 0.241,0.157 0.559,0.235 0.956,0.235 0.277,0 0.532,-0.031 0.767,-0.09 0.234,-0.061 0.381,-0.103 0.441,-0.126 V 3.698 c 0.025,0.036 0.097,0.115 0.217,0.235 0.12,0.12 0.291,0.25 0.514,0.388 0.223,0.138 0.493,0.258 0.812,0.361 0.319,0.102 0.688,0.153 1.11,0.153 0.577,0 1.121,-0.1 1.632,-0.298 0.511,-0.198 0.962,-0.49 1.353,-0.875 0.39,-0.385 0.7,-0.86 0.928,-1.425 0.229,-0.565 0.343,-1.22 0.343,-1.966 0,-1.612 -0.495,-2.872 -1.488,-3.78 -0.991,-0.907 -2.468,-1.361 -4.428,-1.361 -0.433,0 -0.848,0.013 -1.244,0.036 -0.397,0.024 -0.752,0.049 -1.064,0.072 -0.314,0.025 -0.576,0.052 -0.786,0.081 -0.21,0.031 -0.352,0.051 -0.424,0.064 z"
             style="fill:#1d1e1c;fill-opacity:1;fill-rule:nonzero;stroke:none"
             id="path34" /></g><g
           id="g36"
           transform="translate(102.4868,105.3098)"><path
             d="m 0,0 c 0,0.408 0.12,0.691 0.36,0.848 0.241,0.156 0.56,0.234 0.956,0.234 0.277,0 0.533,-0.029 0.767,-0.09 C 2.318,0.932 2.464,0.89 2.525,0.866 V -8.117 C 2.489,-8.13 2.368,-8.15 2.164,-8.181 1.96,-8.21 1.698,-8.237 1.379,-8.262 1.061,-8.285 0.706,-8.31 0.315,-8.334 -0.076,-8.357 -0.481,-8.37 -0.903,-8.37 c -1.84,0 -3.183,0.346 -4.031,1.037 -0.848,0.691 -1.272,1.711 -1.272,3.058 V 0 c 0,0.408 0.121,0.691 0.361,0.848 0.241,0.156 0.559,0.234 0.956,0.234 0.277,0 0.532,-0.029 0.767,-0.09 0.234,-0.06 0.382,-0.102 0.442,-0.126 v -4.888 c 0,-0.734 0.198,-1.293 0.595,-1.678 0.397,-0.385 1.046,-0.577 1.948,-0.577 0.337,0 0.589,0.008 0.758,0.027 0.168,0.018 0.294,0.038 0.379,0.063 z"
             style="fill:#1d1e1c;fill-opacity:1;fill-rule:nonzero;stroke:none"
             id="path38" /></g><g
           id="g40"
           transform="translate(113.5806,105.3098)"><path
             d="M 0,0 C 0.132,0.312 0.295,0.571 0.487,0.775 0.679,0.98 1.003,1.082 1.46,1.082 1.846,1.082 2.152,1.01 2.38,0.866 2.609,0.722 2.748,0.619 2.796,0.56 2.711,0.271 2.591,-0.075 2.435,-0.478 2.279,-0.881 2.104,-1.309 1.912,-1.759 1.719,-2.21 1.524,-2.664 1.325,-3.121 1.127,-3.578 0.944,-3.999 0.775,-4.384 0.427,-5.177 0.069,-5.946 -0.298,-6.692 -0.665,-7.438 -1.07,-8.196 -1.516,-8.966 c -0.204,-0.36 -0.421,-0.706 -0.649,-1.036 -0.228,-0.331 -0.493,-0.626 -0.793,-0.885 -0.302,-0.258 -0.641,-0.463 -1.02,-0.613 -0.378,-0.15 -0.821,-0.226 -1.326,-0.226 -0.3,0 -0.58,0.025 -0.838,0.074 -0.259,0.048 -0.482,0.101 -0.668,0.161 -0.187,0.061 -0.339,0.118 -0.46,0.172 -0.12,0.054 -0.186,0.093 -0.198,0.117 l 0.721,1.786 c 0.072,-0.036 0.231,-0.091 0.478,-0.163 0.247,-0.071 0.497,-0.108 0.749,-0.108 0.372,0 0.692,0.106 0.956,0.316 0.264,0.21 0.523,0.55 0.776,1.018 l 0.541,1.029 c -0.205,0.337 -0.431,0.713 -0.676,1.128 -0.247,0.414 -0.494,0.839 -0.741,1.271 -0.246,0.433 -0.489,0.86 -0.73,1.281 -0.241,0.42 -0.457,0.802 -0.649,1.145 -0.193,0.344 -0.355,0.635 -0.487,0.875 -0.133,0.24 -0.217,0.397 -0.253,0.47 -0.096,0.192 -0.175,0.37 -0.235,0.531 -0.06,0.163 -0.089,0.347 -0.089,0.551 0,0.144 0.021,0.285 0.062,0.424 0.043,0.137 0.115,0.261 0.217,0.37 0.102,0.108 0.235,0.195 0.397,0.26 0.162,0.067 0.369,0.1 0.622,0.1 0.361,0 0.628,-0.036 0.803,-0.108 0.174,-0.072 0.267,-0.115 0.279,-0.126 0.037,-0.097 0.148,-0.343 0.334,-0.74 0.187,-0.397 0.41,-0.866 0.668,-1.407 0.258,-0.541 0.54,-1.118 0.847,-1.731 0.307,-0.614 0.605,-1.186 0.894,-1.714 0.228,0.505 0.447,1.013 0.658,1.523 0.21,0.512 0.406,0.984 0.586,1.417 0.18,0.433 0.334,0.809 0.46,1.127 0.126,0.32 0.219,0.544 0.28,0.677"
             style="fill:#1d1e1c;fill-opacity:1;fill-rule:nonzero;stroke:none"
             id="path42" /></g><g
           id="g44"
           transform="translate(117.8374,109.4045)"><path
             d="m 0,0 c 0,0.409 0.12,0.691 0.361,0.848 0.24,0.156 0.559,0.234 0.956,0.234 0.276,0 0.532,-0.03 0.766,-0.09 C 2.318,0.932 2.465,0.89 2.525,0.866 v -7.324 c 0.204,0.169 0.446,0.37 0.722,0.604 0.276,0.235 0.553,0.472 0.829,0.713 0.278,0.241 0.545,0.472 0.803,0.694 0.259,0.222 0.478,0.406 0.659,0.551 0.181,0.156 0.346,0.289 0.496,0.396 0.15,0.108 0.295,0.196 0.432,0.263 0.139,0.065 0.283,0.113 0.434,0.143 0.15,0.031 0.322,0.045 0.514,0.045 0.253,0 0.471,-0.039 0.658,-0.117 0.186,-0.078 0.343,-0.169 0.469,-0.271 0.126,-0.102 0.226,-0.198 0.298,-0.289 0.072,-0.089 0.12,-0.152 0.144,-0.188 C 8.827,-4.07 8.568,-4.305 8.207,-4.618 7.847,-4.931 7.462,-5.256 7.053,-5.592 6.644,-5.929 6.253,-6.248 5.88,-6.548 5.508,-6.849 5.231,-7.065 5.051,-7.197 c 0.408,-0.337 0.824,-0.716 1.244,-1.137 0.421,-0.421 0.827,-0.854 1.218,-1.298 0.391,-0.445 0.758,-0.89 1.1,-1.336 0.343,-0.444 0.646,-0.86 0.911,-1.244 H 6.386 c -0.278,0.372 -0.584,0.751 -0.92,1.136 -0.338,0.386 -0.677,0.758 -1.02,1.119 -0.342,0.36 -0.679,0.694 -1.009,1.001 -0.332,0.307 -0.635,0.573 -0.912,0.803 v -4.059 H 0 Z"
             style="fill:#1d1e1c;fill-opacity:1;fill-rule:nonzero;stroke:none"
             id="path46" /></g><g
           id="g48"
           transform="translate(134.6133,103.3615)"><path
             d="M 0,0 C 0,0.169 -0.034,0.349 -0.1,0.541 -0.166,0.733 -0.271,0.907 -0.415,1.064 -0.56,1.221 -0.752,1.35 -0.992,1.452 -1.233,1.555 -1.528,1.605 -1.876,1.605 -2.261,1.605 -2.598,1.521 -2.887,1.353 -3.175,1.185 -3.416,0.974 -3.608,0.722 -3.8,0.469 -3.944,0.192 -4.041,-0.108 -4.137,-0.409 -4.186,-0.698 -4.186,-0.975 h 3.23 c 0.396,0 0.655,0.081 0.776,0.245 C -0.061,-0.568 0,-0.325 0,0 m 2.381,-0.217 c 0,-0.372 -0.052,-0.709 -0.153,-1.01 C 2.125,-1.527 1.962,-1.783 1.741,-1.993 1.518,-2.204 1.224,-2.366 0.856,-2.48 0.49,-2.595 0.036,-2.651 -0.505,-2.651 h -3.608 c 0.109,-0.494 0.397,-0.912 0.866,-1.254 0.469,-0.343 1.088,-0.515 1.858,-0.515 0.769,0 1.362,0.057 1.777,0.172 0.414,0.114 0.67,0.195 0.767,0.243 L 1.84,-5.79 C 1.815,-5.814 1.713,-5.862 1.533,-5.935 1.353,-6.007 1.109,-6.082 0.802,-6.16 0.496,-6.238 0.132,-6.311 -0.289,-6.377 c -0.421,-0.065 -0.89,-0.099 -1.407,-0.099 -0.721,0 -1.386,0.096 -1.993,0.289 -0.608,0.192 -1.136,0.487 -1.588,0.883 -0.451,0.398 -0.802,0.897 -1.055,1.497 -0.252,0.602 -0.379,1.312 -0.379,2.129 0,0.758 0.118,1.444 0.353,2.057 0.234,0.613 0.564,1.139 0.991,1.578 0.427,0.439 0.941,0.778 1.543,1.02 0.601,0.24 1.268,0.36 2.001,0.36 0.687,0 1.29,-0.093 1.814,-0.279 C 0.514,2.871 0.953,2.615 1.308,2.291 1.662,1.966 1.93,1.587 2.111,1.154 2.291,0.722 2.381,0.265 2.381,-0.217"
             style="fill:#1d1e1c;fill-opacity:1;fill-rule:nonzero;stroke:none"
             id="path50" /></g><g
           id="g52"
           transform="translate(143.4517,104.6066)"><path
             d="m 0,0 c -0.505,0 -0.896,-0.052 -1.172,-0.153 -0.277,-0.103 -0.47,-0.185 -0.578,-0.244 v -7.017 h -2.525 v 8.405 c 0.048,0.036 0.18,0.115 0.397,0.236 0.216,0.12 0.502,0.243 0.857,0.369 0.354,0.126 0.766,0.24 1.235,0.342 0.47,0.103 0.98,0.154 1.534,0.154 0.336,0 0.655,-0.025 0.956,-0.072 C 1.004,1.972 1.269,1.899 1.497,1.804 1.726,1.707 1.906,1.581 2.039,1.425 2.171,1.268 2.237,1.076 2.237,0.848 2.237,0.511 2.171,0.246 2.039,0.054 1.906,-0.139 1.792,-0.283 1.696,-0.379 1.66,-0.343 1.582,-0.304 1.461,-0.263 1.341,-0.22 1.203,-0.178 1.046,-0.136 0.89,-0.094 0.719,-0.061 0.532,-0.036 0.346,-0.013 0.168,0 0,0"
             style="fill:#1d1e1c;fill-opacity:1;fill-rule:nonzero;stroke:none"
             id="path54" /></g><g
           id="g56"
           transform="translate(151.0454,104.8049)"><path
             d="M 0,0 C -0.709,0 -1.194,-0.087 -1.452,-0.262 -1.71,-0.437 -1.84,-0.656 -1.84,-0.92 c 0,-0.241 0.108,-0.431 0.325,-0.568 0.217,-0.139 0.578,-0.238 1.083,-0.298 l 1.551,-0.198 c 1.13,-0.145 1.954,-0.44 2.471,-0.884 0.517,-0.445 0.776,-1.053 0.776,-1.822 0,-0.951 -0.37,-1.716 -1.11,-2.3 -0.739,-0.583 -1.837,-0.875 -3.292,-0.875 -0.685,0 -1.296,0.053 -1.83,0.162 -0.536,0.109 -0.993,0.231 -1.372,0.37 -0.379,0.139 -0.679,0.271 -0.902,0.397 -0.222,0.125 -0.358,0.213 -0.405,0.261 l 0.974,1.714 c 0.036,-0.036 0.147,-0.105 0.333,-0.207 0.187,-0.103 0.433,-0.214 0.74,-0.334 0.307,-0.121 0.668,-0.226 1.082,-0.315 0.416,-0.091 0.869,-0.136 1.363,-0.136 0.636,0 1.091,0.075 1.361,0.225 0.271,0.151 0.406,0.371 0.406,0.659 0,0.277 -0.111,0.484 -0.333,0.623 -0.224,0.137 -0.617,0.243 -1.182,0.315 l -1.191,0.144 c -0.517,0.06 -0.983,0.156 -1.398,0.289 -0.415,0.133 -0.766,0.309 -1.055,0.532 -0.288,0.223 -0.511,0.496 -0.667,0.82 -0.157,0.325 -0.235,0.716 -0.235,1.173 0,0.409 0.076,0.797 0.226,1.164 0.15,0.366 0.388,0.686 0.712,0.956 0.325,0.27 0.752,0.487 1.281,0.65 0.529,0.161 1.172,0.243 1.93,0.243 C 0.643,1.84 1.323,1.779 1.84,1.659 2.357,1.539 2.718,1.431 2.923,1.335 3.572,1.058 3.896,0.679 3.896,0.198 3.896,-0.114 3.813,-0.367 3.645,-0.56 3.475,-0.752 3.302,-0.902 3.122,-1.011 3.097,-0.986 3.019,-0.92 2.887,-0.812 2.754,-0.704 2.562,-0.59 2.31,-0.47 2.057,-0.35 1.738,-0.241 1.354,-0.145 0.968,-0.048 0.518,0 0,0"
             style="fill:#1d1e1c;fill-opacity:1;fill-rule:nonzero;stroke:none"
             id="path58" /></g></g></g><path
       id="path64"
       style="font-variant:normal;font-weight:600;font-stretch:normal;font-size:5.7186px;font-family:'Museo Sans Rounded 700';-inkscape-font-specification:MuseoSansRounded-700;writing-mode:lr-tb;fill:#1d1e1c;fill-opacity:1;fill-rule:nonzero;stroke:none;stroke-width:1.33333"
       d="M 58.421875 35.496094 C 57.620179 35.496094 56.957831 35.758965 56.431641 36.285156 C 55.907932 36.811346 55.644531 37.50165 55.644531 38.355469 C 55.644531 39.149719 55.879082 39.790337 56.345703 40.279297 C 56.812325 40.768257 57.432637 41.013672 58.207031 41.013672 C 58.8052 41.013672 59.304942 40.907709 59.707031 40.699219 L 59.707031 39.880859 C 59.337209 40.119135 58.900337 40.238281 58.396484 40.238281 C 57.850438 40.238281 57.409293 40.064281 57.074219 39.716797 C 56.739144 39.36683 56.572266 38.898788 56.572266 38.310547 C 56.572266 37.692521 56.750009 37.197948 57.107422 36.828125 C 57.467317 36.458303 57.937312 36.273438 58.515625 36.273438 C 58.949981 36.273438 59.347137 36.380295 59.707031 36.59375 L 59.707031 35.714844 C 59.366994 35.568404 58.938138 35.496094 58.421875 35.496094 z M 79.345703 35.496094 C 78.544005 35.496094 77.879702 35.758965 77.353516 36.285156 C 76.8298 36.811346 76.568359 37.50165 76.568359 38.355469 C 76.568359 39.149719 76.800956 39.790337 77.267578 40.279297 C 77.7342 40.768257 78.354506 41.013672 79.128906 41.013672 C 79.727075 41.013672 80.226817 40.907709 80.628906 40.699219 L 80.628906 39.880859 C 80.259084 40.119135 79.822217 40.238281 79.318359 40.238281 C 78.772315 40.238281 78.333122 40.064281 77.998047 39.716797 C 77.662971 39.36683 77.494141 38.898788 77.494141 38.310547 C 77.494141 37.692521 77.673837 37.197948 78.03125 36.828125 C 78.391143 36.458303 78.85918 36.273438 79.4375 36.273438 C 79.871856 36.273438 80.269013 36.380295 80.628906 36.59375 L 80.628906 35.714844 C 80.288871 35.568404 79.86197 35.496094 79.345703 35.496094 z M 100.18555 35.496094 C 99.969618 35.496094 99.769617 35.527264 99.585938 35.591797 C 99.404755 35.656329 99.248734 35.745202 99.117188 35.859375 C 98.985668 35.971067 98.883083 36.105351 98.808594 36.261719 C 98.736594 36.418087 98.701172 36.589239 98.701172 36.775391 C 98.701172 37.135286 98.886937 37.547579 99.261719 38.011719 C 98.447612 38.431182 98.041016 38.947485 98.041016 39.560547 C 98.041016 39.778966 98.082107 39.977544 98.164062 40.15625 C 98.248454 40.334957 98.366174 40.490075 98.517578 40.619141 C 98.671463 40.745727 98.856328 40.842616 99.072266 40.912109 C 99.288203 40.981603 99.530766 41.015625 99.798828 41.015625 C 99.957673 41.015625 100.11511 41.003869 100.27148 40.976562 C 100.42785 40.949265 100.5787 40.909546 100.72266 40.857422 C 100.8691 40.8053 101.0057 40.740478 101.13477 40.666016 C 101.26631 40.589073 101.38546 40.504473 101.49219 40.410156 L 101.98047 40.927734 L 103.07812 40.927734 C 102.8473 40.68946 102.64782 40.482336 102.47656 40.308594 C 102.30778 40.134852 102.16638 39.988278 102.05469 39.869141 C 102.48656 39.357843 102.70312 38.760684 102.70312 38.078125 L 101.94727 38.078125 C 101.94727 38.189817 101.93734 38.30522 101.91992 38.421875 C 101.90259 38.538531 101.87797 38.650557 101.8457 38.759766 C 101.81593 38.868975 101.77909 38.972985 101.73438 39.072266 C 101.69215 39.17155 101.64584 39.262375 101.59375 39.341797 C 101.38774 39.130824 101.18347 38.921381 100.98242 38.712891 C 100.78386 38.5044 100.5867 38.293005 100.39062 38.082031 C 100.60408 37.977786 100.78325 37.873776 100.92969 37.769531 C 101.07861 37.665285 101.19776 37.557533 101.28711 37.443359 C 101.37892 37.329186 101.44464 37.207191 101.48438 37.078125 C 101.5266 36.946577 101.54883 36.800003 101.54883 36.638672 C 101.54883 36.474858 101.51571 36.322588 101.45117 36.183594 C 101.38664 36.042118 101.29492 35.920123 101.17578 35.818359 C 101.05664 35.716594 100.91291 35.637163 100.74414 35.580078 C 100.57784 35.522994 100.39156 35.496094 100.18555 35.496094 z M 113.1582 35.496094 C 112.91249 35.496094 112.6733 35.52442 112.4375 35.583984 C 112.2017 35.641071 111.99084 35.731896 111.80469 35.853516 C 111.62102 35.972653 111.47159 36.124394 111.35742 36.310547 C 111.24573 36.494217 111.18945 36.712205 111.18945 36.962891 C 111.18945 37.166417 111.22258 37.342737 111.28711 37.494141 C 111.35412 37.645545 111.44442 37.782677 111.55859 37.904297 C 111.67525 38.023434 111.81043 38.13314 111.9668 38.232422 C 112.12317 38.331703 112.29343 38.428592 112.47461 38.525391 C 112.64339 38.602331 112.80083 38.678018 112.94727 38.75 C 113.09619 38.819497 113.22478 38.891808 113.33398 38.96875 C 113.44321 39.045693 113.52834 39.132245 113.58789 39.226562 C 113.64994 39.318398 113.67969 39.426151 113.67969 39.552734 C 113.67969 39.788527 113.58797 39.969649 113.4043 40.09375 C 113.22311 40.217852 112.94652 40.279297 112.57422 40.279297 C 112.46749 40.279297 112.3512 40.268432 112.22461 40.246094 C 112.09803 40.223756 111.97229 40.192059 111.8457 40.152344 C 111.71912 40.110145 111.59854 40.059564 111.48438 40 C 111.37264 39.940433 111.27523 39.87329 111.19336 39.798828 L 111.19336 40.710938 C 111.26782 40.758102 111.36666 40.800664 111.48828 40.837891 C 111.6099 40.875126 111.73848 40.906823 111.875 40.931641 C 112.01152 40.958947 112.14438 40.977825 112.27344 40.990234 C 112.40499 41.005123 112.51612 41.013672 112.60547 41.013672 C 112.87352 41.013672 113.12643 40.987671 113.36719 40.935547 C 113.60795 40.883424 113.82024 40.798296 114.00391 40.681641 C 114.19006 40.564986 114.33806 40.412715 114.44727 40.226562 C 114.55647 40.040411 114.61133 39.81351 114.61133 39.542969 C 114.61133 39.341924 114.57449 39.162227 114.5 39.005859 C 114.42802 38.84701 114.32775 38.703285 114.20117 38.574219 C 114.07707 38.445153 113.93192 38.32743 113.76562 38.220703 C 113.60181 38.113975 113.42639 38.012815 113.24023 37.916016 C 113.05904 37.836589 112.90071 37.762326 112.76172 37.695312 C 112.62521 37.625819 112.50696 37.554404 112.41016 37.482422 C 112.3158 37.410443 112.24491 37.331012 112.19531 37.244141 C 112.14562 37.15727 112.12109 37.054685 112.12109 36.935547 C 112.12109 36.808964 112.15226 36.700682 112.2168 36.611328 C 112.28133 36.521973 112.36504 36.449663 112.4668 36.392578 C 112.57104 36.335485 112.68734 36.294349 112.81641 36.269531 C 112.94795 36.244713 113.07938 36.232422 113.21094 36.232422 C 113.68748 36.232422 114.07805 36.342128 114.38086 36.560547 L 114.38086 35.685547 C 114.12521 35.558963 113.71667 35.496094 113.1582 35.496094 z M 64.470703 35.583984 L 64.470703 40.923828 L 67.425781 40.923828 L 67.425781 40.175781 L 65.355469 40.175781 L 65.355469 35.583984 L 64.470703 35.583984 z M 71.558594 35.583984 L 71.558594 40.923828 L 72.470703 40.923828 L 72.470703 35.583984 L 71.558594 35.583984 z M 85.392578 35.583984 L 85.392578 40.923828 L 86.279297 40.923828 L 86.279297 38.294922 L 86.292969 38.294922 C 86.307813 38.327189 86.350411 38.388634 86.419922 38.480469 L 88.277344 40.923828 L 89.431641 40.923828 L 87.175781 38.146484 L 89.271484 35.583984 L 88.210938 35.583984 L 86.419922 37.912109 C 86.365344 37.979124 86.322747 38.039146 86.292969 38.09375 L 86.279297 38.09375 L 86.279297 35.583984 L 85.392578 35.583984 z M 120.14648 35.583984 L 118.14844 40.923828 L 119.11523 40.923828 L 119.57812 39.564453 L 121.67773 39.564453 L 122.1582 40.923828 L 123.12891 40.923828 L 121.14453 35.583984 L 120.14648 35.583984 z M 125.8457 35.583984 L 127.73047 40.923828 L 128.7207 40.923828 L 130.63867 35.583984 L 129.69922 35.583984 L 128.35156 39.626953 C 128.29698 39.790767 128.26156 39.944462 128.24414 40.085938 L 128.22852 40.085938 C 128.2062 39.914677 128.17503 39.763831 128.13281 39.634766 L 126.81445 35.583984 L 125.8457 35.583984 z M 134.43555 35.583984 L 134.43555 40.923828 L 137.43359 40.923828 L 137.43359 40.175781 L 135.32227 40.175781 L 135.32227 38.595703 L 137.1582 38.595703 L 137.1582 37.847656 L 135.32227 37.847656 L 135.32227 36.335938 L 137.31445 36.335938 L 137.31445 35.583984 L 134.43555 35.583984 z M 100.19336 36.113281 C 100.27277 36.113281 100.3465 36.129843 100.41602 36.162109 C 100.48554 36.191896 100.54752 36.234458 100.59961 36.289062 C 100.65179 36.341182 100.69288 36.402627 100.72266 36.474609 C 100.75492 36.546593 100.76953 36.623176 100.76953 36.705078 C 100.76953 37.067454 100.50809 37.382331 99.984375 37.650391 C 99.659237 37.288015 99.498047 36.993973 99.498047 36.765625 C 99.498047 36.668823 99.512655 36.579422 99.544922 36.5 C 99.579686 36.420572 99.627944 36.352006 99.6875 36.294922 C 99.749589 36.235356 99.821894 36.191896 99.90625 36.162109 C 99.993121 36.129843 100.08912 36.113281 100.19336 36.113281 z M 120.61719 36.376953 L 120.63086 36.376953 C 120.65575 36.530843 120.67886 36.643397 120.70117 36.712891 L 121.44336 38.841797 L 119.80859 38.841797 L 120.54102 36.712891 C 120.5683 36.630983 120.59488 36.518429 120.61719 36.376953 z M 99.679688 38.474609 C 100.29771 39.142276 100.75257 39.625455 101.04297 39.925781 C 100.71782 40.208732 100.32209 40.349609 99.855469 40.349609 C 99.721433 40.349609 99.595165 40.330731 99.478516 40.291016 C 99.364302 40.251304 99.264043 40.193603 99.179688 40.119141 C 99.09535 40.04468 99.030158 39.955808 98.980469 39.851562 C 98.933358 39.744835 98.908203 39.625688 98.908203 39.494141 C 98.908203 39.278204 98.968753 39.089067 99.087891 38.927734 C 99.209508 38.766403 99.406665 38.616086 99.679688 38.474609 z "
       transform="matrix(0.75000002,0,0,-0.75000002,43.0141,116.6565)" /></g></svg>
