<svg xmlns="http://www.w3.org/2000/svg" width="124" height="28" viewBox="0 0 124 28">
    <path fill="#524962" fill-rule="evenodd" d="M123.803 14.834h-1.93c0-3.924.39-5.561-1.35-5.561-1.825 0-1.446 1.926-1.446 5.561h-1.929v-3.883c0-2.119-1.99-1.805-2.77-1.42v5.303h-1.928V8.353c1.22-.6 4.633-1.258 5.966.42 1.243-1.564 4.296-1.428 5.16.419.296.636.227.715.227 5.642zm-13.33 6.331c-.737 0-1.276-.518-1.276-1.241 0-.724.539-1.242 1.275-1.242.74 0 1.28.518 1.28 1.242 0 .723-.54 1.241-1.28 1.241zm0-2.03c-.452 0-.74.339-.74.789 0 .446.288.788.74.788.45 0 .743-.342.743-.788 0-.45-.293-.789-.744-.789zm.102-.622a.12.12 0 0 1-.077.028c-.058 0-.121-.05-.121-.119a.11.11 0 0 1 .033-.079l.304-.32a.132.132 0 0 1 .099-.043c.073 0 .147.061.147.14a.126.126 0 0 1-.045.097l-.34.296zm-3.677-3.449c-5.057 0-5.095-7.36 0-7.36 5.109 0 5.068 7.36 0 7.36zm.8-5.69c-2.862-1.404-3.823 4.188-.8 4.188 2.257 0 2.413-3.393.8-4.187zm-4.45 11.338c.378 0 .572-.23.572-.565v-1.192c0-.14.118-.255.272-.255.143 0 .26.115.26.255v1.206c0 .598-.36 1.004-1.104 1.004-.744 0-1.102-.41-1.102-1v-1.21a.26.26 0 0 1 .267-.255c.143 0 .26.115.26.255v1.192c0 .334.198.565.575.565zm-2.391-7.468c.263-.117.433-.236.502-.304l.827 1.258c-.508.402-1.109.612-1.743.738-5.933 1.163-6.376-7.192-.971-7.192 2.7 0 3.215 1.41 2.066 2.314-.337-.332-.63-.538-1.143-.69-3.8-1.137-3.607 5.684.462 3.876zM96.102 18.7a.444.444 0 0 1 .443.27l.711 1.803c.011.033.019.065.019.097 0 .133-.11.274-.28.274a.268.268 0 0 1-.252-.17l-.095-.258H95.6l-.1.259a.27.27 0 0 1-.256.17.275.275 0 0 1-.257-.372l.715-1.803a.432.432 0 0 1 .4-.27zm.403 1.566l-.381-1.033-.381 1.033h.762zm-3.426-5.202c-1.65 0-1.664-2.463 0-2.463 1.649 0 1.668 2.463 0 2.463zm-1.344 3.877c0-.119.102-.22.227-.22h1.382c.139 0 .267.119.267.281a.323.323 0 0 1-.062.187l-1.11 1.484h.978c.121 0 .224.1.224.219 0 .13-.103.23-.224.23H92.02a.29.29 0 0 1-.286-.288c0-.061.018-.118.055-.169l1.121-1.494h-.95a.228.228 0 0 1-.226-.23zm-1.983-5.508c.356-.089.624-.244.682-.304l.716 1.137c-.388.38-1.227.757-2.218.757-3.048 0-2.507-2.548-2.507-5.547-.535 0-1.788.158-1.103-1.543h1.103c0-.794-.404-2.747 1.929-1.84v1.84c1.272 0 2.907-.359 2.12 1.543h-2.12c0 2.759-.39 4.42 1.398 3.957zm-5.079 7.711a.328.328 0 0 1-.26-.13l-1.085-1.457v1.335a.26.26 0 0 1-.264.252.258.258 0 0 1-.256-.252v-1.865c0-.169.146-.327.34-.327.11 0 .22.05.286.14l1.041 1.39V18.95a.26.26 0 0 1 .264-.251c.14 0 .257.115.257.251v1.883c0 .162-.136.31-.323.31zm-6.735-6.756c-.918-.707-1.878-4.264 3.665-3.81.275.024.436.039.482.048 0-.896-.297-1.53-1.805-1.53-1.056 0-1.52.388-1.915.61-.607-.339-1.23-1.962 1.819-1.962 4.499 0 3.789 2.441 3.789 7.036-.396.136-4.674.657-6.035-.392zm4.133-2.585c-.081-.025-.383-.047-.468-.054-1.195-.09-2.438-.114-2.438 1.029 0 1.191 1.779 1.124 2.906.88v-1.855zm-4.552 6.918c.235-.035.473.051.473.288v1.88a.26.26 0 0 1-.264.255.259.259 0 0 1-.26-.255v-1.447l-.66 1.609a.155.155 0 0 1-.146.093.152.152 0 0 1-.14-.093l-.659-1.61v1.45a.26.26 0 0 1-.264.253.257.257 0 0 1-.257-.252v-1.883c0-.158.132-.288.294-.288.238-.025.443.026.531.234l.498 1.217.5-1.217a.38.38 0 0 1 .354-.234zm-8.743-3.887c0-9.838-.35-9.972 1.006-9.972.345 0 .703.077.923.162v3.572c.994-1.464 5.277-1.284 5.277 2.571 0 3.726-3.45 4.277-7.206 3.667zm3.527-5.561c-1.97 0-1.598 2.214-1.598 4.168.294.143 1.46.196 2.073-.041 1.848-.715 1.58-4.127-.475-4.127zm-4.916 11.4a.225.225 0 0 1 0 .45H66.15a.291.291 0 0 1-.293-.289V19.01c0-.158.132-.288.293-.288h1.236a.225.225 0 0 1 0 .45h-1.008v.508h.982c.12 0 .223.101.223.227a.226.226 0 0 1-.223.223h-.982v.544h1.008zm-1.676-5.758c-7.813.727-6.199-3.745-3.927-4.235.987-.213 2.643-.13 3.038-.054 0-.946-.342-1.53-1.805-1.53-1.057 0-1.52.388-1.915.61-.63-.351-1.212-1.962 1.819-1.962 4.51 0 3.788 2.49 3.788 7.036-.135.047-.854.122-.998.135zm-.903-3.112c-.081-.025-.383-.047-.468-.054-1.482-.11-2.439 0-2.439 1.029 0 1.19 1.792 1.121 2.907.88v-1.855zm-8.514-2.232v5.263h-1.928V8.53c1.26-.928 4.973-1.288 4.973.108 0 .356-.087.598-.413.92-.276-.267-1.749-.47-2.632.014zm-2.468 11.551h-.672a.291.291 0 0 1-.292-.288V19.01c0-.158.132-.288.292-.288h.672c.766 0 1.297.48 1.297 1.203 0 .723-.531 1.198-1.297 1.198zm0-1.95h-.444v1.5h.444c.483 0 .766-.342.766-.748 0-.425-.265-.753-.766-.753zm-6.088-6.976c.363 1.625 2.961 1.536 4.024 1.015l.523 1.34c-.089.086-.671.246-.793.277-7.354 1.839-7.302-7.125-2.004-7.125 2.079 0 3.21 1.188 3.21 2.666 0 2.336-2.482 1.827-4.96 1.827zM50.804 9.8c-.46-1.319-3.12-1.03-3.12 1.136 2.226 0 3.645.367 3.12-1.136zm-6.176 11.09c0 .13-.103.231-.224.231h-1.396a.29.29 0 0 1-.286-.288c0-.061.018-.118.055-.169l1.122-1.494h-.95a.228.228 0 0 1-.227-.23c0-.119.102-.22.227-.22h1.382c.139 0 .267.119.267.281a.321.321 0 0 1-.062.187l-1.11 1.484h.978c.12 0 .224.1.224.219zM43.95 5.025v9.81h-1.93c0-9.225-.637-10.808 1.93-9.81zm-2.824 15.649a.225.225 0 0 1 0 .45H39.89a.291.291 0 0 1-.293-.289V19.01c0-.158.132-.288.293-.288h1.236a.225.225 0 0 1 0 .45h-1.008v.508h.982c.12 0 .223.101.223.227a.226.226 0 0 1-.223.223h-.982v.544h1.008zM33.32 13.69c-.218-.599-.18-1.373.034-1.888.61-1.474 3.57-1.385 4.643-1.177 0-.389.012-.843-.44-1.19-.592-.455-1.895-.423-2.64-.088-.369.164-.336.188-.64.358-.618-.344-1.224-1.962 1.819-1.962 4.508 0 3.789 2.491 3.789 7.036-.396.136-5.821.96-6.565-1.09zm4.663-1.888c-.395-.123-2.11-.189-2.61.224-.649.532-.57 2.32 2.61 1.63v-1.854zM13.931 27.5C6.348 27.5.191 21.452.191 13.995.19 6.548 6.347.5 13.93.5c7.593 0 13.75 6.048 13.75 13.495 0 7.457-6.157 13.505-13.75 13.505zm4.451-5.41a.177.177 0 0 0 .165.096h2.21c.137 0 .253-.105.253-.238v-13.4a.255.255 0 0 0-.252-.248h-4.519c-.068 0-.136-.038-.155-.095a.154.154 0 0 1 .01-.181c.339-.448.543-1 .543-1.59 0-1.467-1.212-2.648-2.706-2.648-1.493 0-2.696 1.18-2.696 2.647 0 .591.194 1.143.543 1.59.04.048.04.124.01.182a.173.173 0 0 1-.155.095H7.104a.246.246 0 0 0-.242.248v2.17c0 .077.039.134.097.163.068.028.136.028.184-.019a2.743 2.743 0 0 1 1.63-.524c1.493 0 2.695 1.18 2.695 2.648 0 1.466-1.202 2.647-2.696 2.647-.61 0-1.173-.19-1.629-.524-.048-.047-.116-.047-.184-.018a.168.168 0 0 0-.097.151v6.706c0 .133.107.238.242.238h6.837a.173.173 0 0 0 .155-.096c.029-.057.029-.123-.01-.171-.349-.448-.543-1-.543-1.6 0-1.467 1.202-2.648 2.696-2.648 1.493 0 2.706 1.181 2.706 2.648 0 .6-.204 1.152-.544 1.6a.158.158 0 0 0-.019.171zm-7.942-1.152a.336.336 0 0 1-.3.162h-.844c-.068 0-.126-.028-.155-.086a.155.155 0 0 1 0-.18l5.43-8.467a.331.331 0 0 1 .291-.162h.853c.068 0 .126.038.156.085a.155.155 0 0 1 0 .181l-5.43 8.467zM34.066 18.7c.11 0 .22.05.286.14l1.04 1.39V18.95a.26.26 0 0 1 .265-.251c.139 0 .256.115.256.251v1.883c0 .162-.136.31-.322.31a.33.33 0 0 1-.26-.13l-1.085-1.457v1.335a.26.26 0 0 1-.264.252.257.257 0 0 1-.257-.252v-1.865c0-.169.147-.327.34-.327zm3.692 0c.14 0 .257.115.257.251v1.94a.26.26 0 0 1-.264.253.258.258 0 0 1-.257-.252v-1.94a.26.26 0 0 1 .264-.252zm8.634.021h.993c.466 0 .704.292.704.613 0 .302-.19.503-.42.55.26.04.468.288.468.59 0 .36-.246.648-.711.648h-1.034a.291.291 0 0 1-.293-.288V19.01c0-.158.132-.288.293-.288zm.228 1.958h.67c.198 0 .316-.103.316-.276 0-.152-.11-.281-.316-.281h-.67v.557zm0-.997h.652c.176 0 .286-.108.286-.259 0-.15-.11-.263-.286-.263h-.652v.522zm3.3-.96h1.235c.121 0 .224.1.224.226a.225.225 0 0 1-.224.223h-1.007v.508h.982a.226.226 0 0 1 0 .45h-.982v.544h1.007c.121 0 .224.1.224.219 0 .1-.059.17-.121.241-.074.087-.158.173-.158.313 0 .112.066.155.136.155.066 0 .102-.05.154-.075a.118.118 0 0 1 .062-.019c.059 0 .103.043.103.094 0 .112-.19.191-.319.191-.195 0-.367-.093-.367-.324 0-.133.059-.252.165-.346H49.92a.291.291 0 0 1-.293-.288V19.01c0-.158.132-.288.293-.288zm7.011-.022c.11 0 .22.05.286.14l1.04 1.39V18.95a.26.26 0 0 1 .265-.251c.14 0 .257.115.257.251v1.883c0 .162-.136.31-.323.31a.328.328 0 0 1-.26-.13l-1.085-1.457v1.335a.26.26 0 0 1-.264.252.257.257 0 0 1-.257-.252v-1.865c0-.169.147-.327.341-.327zm3.609.003c.08 0 .164.04.212.115l.55.868.539-.864a.254.254 0 0 1 .216-.119.24.24 0 0 1 .249.235c0 .042-.01.086-.036.126l-.708 1.076v.752a.259.259 0 0 1-.264.252.257.257 0 0 1-.256-.252v-.752l-.715-1.08a.208.208 0 0 1-.037-.122c0-.116.103-.235.25-.235zm8.817-.003c.14 0 .256.115.256.251v1.722h.832a.225.225 0 0 1 0 .45h-1.06a.291.291 0 0 1-.292-.289v-1.883c0-.136.117-.251.264-.251zm3.044.021h1.235c.121 0 .224.101.224.227a.226.226 0 0 1-.224.223h-1.008v.508h.982c.121 0 .224.101.224.227a.226.226 0 0 1-.224.223h-.982v.544h1.008a.225.225 0 0 1 0 .45H72.4a.291.291 0 0 1-.293-.289V19.01c0-.158.132-.288.293-.288zm7.466 0h1.235a.225.225 0 0 1 0 .45h-1.008v.508h.982a.226.226 0 0 1 0 .45h-.982v.544h1.008a.225.225 0 0 1 0 .45h-1.235a.291.291 0 0 1-.294-.289V19.01c0-.158.132-.288.294-.288zm6.765 0h1.543c.121 0 .224.101.224.227a.226.226 0 0 1-.224.223h-.51v1.718a.26.26 0 0 1-.263.255.258.258 0 0 1-.26-.255V19.17h-.51a.228.228 0 0 1-.227-.23c0-.119.102-.22.227-.22zm12.349-.021c.139 0 .256.115.256.251v.843l.807-1a.234.234 0 0 1 .187-.087c.131 0 .249.105.249.234a.236.236 0 0 1-.055.151l-.653.756.737.903a.242.242 0 0 1 .051.144c0 .127-.11.25-.253.25a.242.242 0 0 1-.198-.098l-.681-.886-.19.223v.508a.259.259 0 0 1-.265.252.257.257 0 0 1-.256-.252v-1.94a.26.26 0 0 1 .264-.252zm7.242.021h.85c.532 0 .82.353.82.774 0 .418-.292.774-.82.774h-.623v.623a.26.26 0 0 1-.264.252.258.258 0 0 1-.257-.252v-1.883c0-.158.132-.288.294-.288zm.227 1.099h.553c.205 0 .36-.127.36-.325 0-.201-.155-.324-.36-.324h-.553v.649zm6.806-1.142a.28.28 0 0 1 .271.209l.389 1.57.418-1.57a.261.261 0 0 1 .256-.187c.114 0 .213.079.242.187l.418 1.57.381-1.567a.282.282 0 0 1 .279-.212.27.27 0 0 1 .278.266.22.22 0 0 1-.011.072l-.546 1.876a.356.356 0 0 1-.337.252h-.007a.338.338 0 0 1-.334-.252l-.37-1.418-.367 1.418a.344.344 0 0 1-.33.252h-.007a.357.357 0 0 1-.34-.252l-.55-1.88a.228.228 0 0 1-.012-.068c0-.136.114-.266.279-.266z"/>
</svg>
