<?xml version="1.0" encoding="UTF-8" standalone="no"?>
<svg
   xmlns:dc="http://purl.org/dc/elements/1.1/"
   xmlns:cc="http://creativecommons.org/ns#"
   xmlns:rdf="http://www.w3.org/1999/02/22-rdf-syntax-ns#"
   xmlns:svg="http://www.w3.org/2000/svg"
   xmlns="http://www.w3.org/2000/svg"
   xmlns:sodipodi="http://sodipodi.sourceforge.net/DTD/sodipodi-0.dtd"
   xmlns:inkscape="http://www.inkscape.org/namespaces/inkscape"
   version="1.1"
   id="svg2"
   xml:space="preserve"
   width="170.64297"
   height="37.038666"
   viewBox="0 0 170.64297 37.038666"
   sodipodi:docname="buykers_tr_colour.svg"
   inkscape:version="1.0.2-2 (e86c870879, 2021-01-15)"><metadata
     id="metadata8"><rdf:RDF><cc:Work
         rdf:about=""><dc:format>image/svg+xml</dc:format><dc:type
           rdf:resource="http://purl.org/dc/dcmitype/StillImage" /><dc:title></dc:title></cc:Work></rdf:RDF></metadata><defs
     id="defs6"><clipPath
       clipPathUnits="userSpaceOnUse"
       id="clipPath18"><path
         d="M 0,198.425 H 198.425 V 0 H 0 Z"
         id="path16" /></clipPath></defs><sodipodi:namedview
     pagecolor="#ffffff"
     bordercolor="#666666"
     borderopacity="1"
     objecttolerance="10"
     gridtolerance="10"
     guidetolerance="10"
     inkscape:pageopacity="0"
     inkscape:pageshadow="2"
     inkscape:window-width="1920"
     inkscape:window-height="1017"
     id="namedview4"
     showgrid="false"
     fit-margin-top="0"
     fit-margin-left="0"
     fit-margin-right="0"
     fit-margin-bottom="0"
     inkscape:zoom="1.6064003"
     inkscape:cx="133.85767"
     inkscape:cy="70.561358"
     inkscape:window-x="-8"
     inkscape:window-y="-8"
     inkscape:window-maximized="1"
     inkscape:current-layer="g14" /><g
     id="g10"
     inkscape:groupmode="layer"
     inkscape:label="Buykers RGB (5)"
     transform="matrix(1.3333333,0,0,-1.3333333,-54.313199,150.9684)"><g
       id="g12"><g
         id="g14"
         clip-path="url(#clipPath18)"><g
           id="g20"
           transform="translate(56.5796,100.9094)"><path
             d="m 0,0 -5.487,-8.711 c -0.059,-0.107 -0.177,-0.166 -0.304,-0.166 h -0.853 c -0.068,0 -0.127,0.029 -0.156,0.088 -0.039,0.059 -0.039,0.127 0,0.185 l 5.487,8.712 c 0.059,0.108 0.176,0.166 0.294,0.166 h 0.862 C -0.088,0.274 -0.029,0.235 0,0.187 0.039,0.128 0.039,0.059 0,0"
             style="fill:#e30521;fill-opacity:1;fill-rule:nonzero;stroke:none"
             id="path22" /></g><g
           id="g24"
           transform="translate(61.7729,91.1603)"><path
             d="m 0,0 c 0,-0.138 -0.118,-0.245 -0.255,-0.245 h -2.234 c -0.078,0 -0.137,0.039 -0.167,0.098 -0.029,0.058 -0.019,0.127 0.02,0.176 0.343,0.46 0.549,1.029 0.549,1.646 0,1.51 -1.225,2.724 -2.734,2.724 -1.509,0 -2.724,-1.214 -2.724,-2.724 0,-0.617 0.196,-1.186 0.548,-1.646 0.04,-0.049 0.04,-0.118 0.01,-0.176 -0.029,-0.059 -0.088,-0.098 -0.157,-0.098 h -6.907 c -0.137,0 -0.245,0.107 -0.245,0.245 v 6.897 c 0,0.07 0.039,0.128 0.098,0.158 0.068,0.029 0.137,0.029 0.186,-0.02 0.46,-0.343 1.029,-0.539 1.646,-0.539 1.509,0 2.724,1.215 2.724,2.724 0,1.509 -1.215,2.724 -2.724,2.724 -0.617,0 -1.186,-0.196 -1.646,-0.539 -0.049,-0.049 -0.118,-0.049 -0.186,-0.019 -0.059,0.029 -0.098,0.088 -0.098,0.166 v 2.234 c 0,0.138 0.108,0.255 0.245,0.255 h 4.575 c 0.069,0 0.128,0.039 0.157,0.098 0.03,0.059 0.03,0.137 -0.01,0.186 -0.352,0.461 -0.548,1.029 -0.548,1.637 0,1.509 1.215,2.724 2.724,2.724 1.509,0 2.734,-1.215 2.734,-2.724 0,-0.608 -0.206,-1.176 -0.549,-1.637 -0.039,-0.049 -0.049,-0.127 -0.01,-0.186 0.02,-0.059 0.088,-0.098 0.157,-0.098 h 4.566 C -0.118,14.041 0,13.924 0,13.786 Z m -7.153,22.066 c -7.663,0 -13.885,-6.222 -13.885,-13.884 0,-7.673 6.222,-13.895 13.885,-13.895 7.672,0 13.894,6.222 13.894,13.895 0,7.662 -6.222,13.884 -13.894,13.884"
             style="fill:#e30521;fill-opacity:1;fill-rule:nonzero;stroke:none"
             id="path26" /></g><g
           id="g28"
           transform="translate(56.5796,100.9094)"><path
             d="m 0,0 -5.487,-8.711 c -0.059,-0.107 -0.177,-0.166 -0.304,-0.166 h -0.853 c -0.068,0 -0.127,0.029 -0.156,0.088 -0.039,0.059 -0.039,0.127 0,0.185 l 5.487,8.712 c 0.059,0.108 0.176,0.166 0.294,0.166 h 0.862 C -0.088,0.274 -0.029,0.235 0,0.187 0.039,0.128 0.039,0.059 0,0 M 4.938,4.292 H 0.372 c -0.068,0 -0.137,0.039 -0.157,0.098 -0.039,0.059 -0.029,0.137 0.01,0.186 0.343,0.461 0.549,1.029 0.549,1.637 0,1.509 -1.225,2.724 -2.734,2.724 -1.509,0 -2.724,-1.215 -2.724,-2.724 0,-0.608 0.196,-1.176 0.549,-1.637 0.039,-0.049 0.039,-0.127 0.01,-0.186 -0.03,-0.059 -0.088,-0.098 -0.157,-0.098 h -4.576 c -0.137,0 -0.245,-0.117 -0.245,-0.255 V 1.803 c 0,-0.078 0.039,-0.137 0.098,-0.166 0.068,-0.03 0.137,-0.03 0.186,0.019 0.461,0.343 1.029,0.539 1.646,0.539 1.509,0 2.724,-1.215 2.724,-2.724 0,-1.509 -1.215,-2.724 -2.724,-2.724 -0.617,0 -1.185,0.196 -1.646,0.539 -0.049,0.049 -0.118,0.049 -0.186,0.02 -0.059,-0.03 -0.098,-0.088 -0.098,-0.158 v -6.897 c 0,-0.138 0.108,-0.245 0.245,-0.245 h 6.908 c 0.069,0 0.127,0.039 0.157,0.098 0.029,0.058 0.029,0.127 -0.01,0.176 -0.353,0.46 -0.549,1.029 -0.549,1.646 0,1.51 1.215,2.724 2.724,2.724 1.509,0 2.734,-1.214 2.734,-2.724 C 3.106,-8.691 2.9,-9.26 2.557,-9.72 2.518,-9.769 2.508,-9.838 2.538,-9.896 2.567,-9.955 2.626,-9.994 2.704,-9.994 h 2.234 c 0.138,0 0.255,0.107 0.255,0.245 V 4.037 c 0,0.138 -0.117,0.255 -0.255,0.255"
             style="fill:#ffffff;fill-opacity:1;fill-rule:nonzero;stroke:none"
             id="path30" /></g><path
           id="path34"
           style="fill:#1d1d1b;fill-opacity:1;fill-rule:nonzero;stroke:none;stroke-width:1.33333"
           d="M 46.759766 6.3925781 C 46.335766 6.3925781 45.994281 6.4778646 45.738281 6.6445312 C 45.480948 6.8111979 45.353516 7.1114948 45.353516 7.5488281 L 45.353516 20.583984 C 45.429516 20.595984 45.581307 20.620344 45.806641 20.652344 C 46.030641 20.68301 46.309865 20.711615 46.644531 20.738281 C 46.977865 20.762281 47.355297 20.78912 47.779297 20.814453 C 48.201964 20.84112 48.644755 20.851562 49.107422 20.851562 C 51.199422 20.851562 52.775318 20.368391 53.833984 19.400391 C 54.893984 18.429724 55.423828 17.086568 55.423828 15.365234 C 55.423828 14.570568 55.300641 13.869625 55.056641 13.265625 C 54.812641 12.662958 54.482406 12.154807 54.066406 11.744141 C 53.649073 11.334807 53.16776 11.0245 52.621094 10.8125 C 52.07576 10.6005 51.496859 10.494141 50.880859 10.494141 C 50.430193 10.494141 50.036646 10.54887 49.695312 10.658203 C 49.355313 10.767536 49.066792 10.896302 48.828125 11.042969 C 48.590792 11.190969 48.407297 11.329651 48.279297 11.458984 C 48.149964 11.585651 48.074161 11.668365 48.048828 11.707031 L 48.048828 6.625 C 47.983495 6.5983333 47.828792 6.5536146 47.578125 6.4882812 C 47.327458 6.4242813 47.054432 6.3925781 46.759766 6.3925781 z M 82.226562 6.3925781 C 81.802563 6.3925781 81.461078 6.4778646 81.205078 6.6445312 C 80.947745 6.8111979 80.820312 7.1114948 80.820312 7.5488281 L 80.820312 20.583984 L 83.515625 20.583984 L 83.515625 16.25 C 83.811625 16.495333 84.134948 16.781375 84.488281 17.109375 C 84.841615 17.436042 85.19974 17.792401 85.566406 18.177734 C 85.93174 18.563068 86.294297 18.960427 86.654297 19.371094 C 87.014297 19.783094 87.340719 20.186651 87.636719 20.583984 L 90.986328 20.583984 C 90.703661 20.174651 90.380958 19.730526 90.015625 19.255859 C 89.648958 18.781193 89.255844 18.304745 88.839844 17.830078 C 88.42251 17.354078 87.990349 16.892693 87.541016 16.443359 C 87.091682 15.994026 86.646937 15.591089 86.210938 15.232422 C 86.402937 15.089755 86.700323 14.858443 87.097656 14.537109 C 87.49499 14.217109 87.911656 13.877578 88.347656 13.517578 C 88.78499 13.158911 89.196078 12.809896 89.580078 12.476562 C 89.965411 12.143229 90.241536 11.893229 90.408203 11.726562 C 90.38287 11.687896 90.333193 11.620771 90.255859 11.523438 C 90.179859 11.427438 90.071547 11.324177 89.935547 11.214844 C 89.80088 11.106844 89.634214 11.011734 89.435547 10.927734 C 89.235547 10.845068 89.005042 10.802734 88.734375 10.802734 C 88.529042 10.802734 88.344927 10.817609 88.183594 10.849609 C 88.023594 10.881609 87.870656 10.935193 87.722656 11.005859 C 87.574656 11.076526 87.421719 11.168536 87.261719 11.283203 C 87.100385 11.399203 86.923802 11.540365 86.730469 11.707031 C 86.538469 11.860365 86.303344 12.056255 86.027344 12.294922 C 85.751344 12.530922 85.467875 12.779156 85.171875 13.035156 C 84.877208 13.29249 84.579823 13.546208 84.285156 13.796875 C 83.99049 14.046208 83.734292 14.260073 83.515625 14.441406 L 83.515625 6.625 C 83.452958 6.5983333 83.294255 6.5536146 83.044922 6.4882812 C 82.794255 6.4242813 82.521229 6.3925781 82.226562 6.3925781 z M 96.783203 10.4375 C 95.999203 10.4375 95.287198 10.564313 94.644531 10.820312 C 94.004531 11.078979 93.454047 11.440823 92.998047 11.910156 C 92.542047 12.378156 92.19012 12.939083 91.939453 13.59375 C 91.688786 14.247083 91.564453 14.980349 91.564453 15.791016 C 91.564453 16.663016 91.699417 17.419833 91.96875 18.0625 C 92.239417 18.703833 92.612417 19.236156 93.09375 19.660156 C 93.575083 20.082823 94.141063 20.398182 94.789062 20.603516 C 95.437062 20.807516 96.147302 20.912109 96.917969 20.912109 C 97.469969 20.912109 97.968635 20.874021 98.417969 20.804688 C 98.867302 20.734021 99.255984 20.656885 99.583984 20.574219 C 99.910651 20.490219 100.16995 20.409365 100.36328 20.332031 C 100.55528 20.254698 100.66607 20.205021 100.69141 20.179688 L 99.958984 18.273438 C 99.854984 18.325437 99.583292 18.41187 99.140625 18.533203 C 98.697958 18.65587 98.065474 18.714844 97.244141 18.714844 C 96.422807 18.714844 95.761719 18.533302 95.261719 18.167969 C 94.760385 17.802635 94.452557 17.354792 94.337891 16.828125 L 98.1875 16.828125 C 98.764833 16.828125 99.249958 16.767818 99.640625 16.646484 C 100.03129 16.525151 100.3486 16.352286 100.58594 16.126953 C 100.82194 15.902953 100.99614 15.627974 101.10547 15.306641 C 101.21347 14.985307 101.26953 14.627802 101.26953 14.230469 C 101.26953 13.715802 101.17247 13.228292 100.98047 12.765625 C 100.78714 12.302958 100.50171 11.900734 100.12305 11.552734 C 99.74438 11.206068 99.275464 10.934995 98.716797 10.736328 C 98.15813 10.536328 97.515203 10.4375 96.783203 10.4375 z M 107.89062 10.4375 C 107.29996 10.4375 106.75586 10.491609 106.25586 10.599609 C 105.75453 10.708943 105.31617 10.83213 104.9375 10.966797 C 104.55883 11.101464 104.25215 11.233328 104.02148 11.361328 C 103.78948 11.489328 103.64832 11.572661 103.59766 11.611328 L 103.59766 20.583984 L 106.29492 20.583984 L 106.29492 13.09375 C 106.40959 13.02975 106.61416 12.941365 106.91016 12.832031 C 107.20482 12.724031 107.62149 12.669922 108.16016 12.669922 C 108.34016 12.669922 108.52985 12.683031 108.72852 12.707031 C 108.92852 12.733698 109.11068 12.770453 109.27734 12.814453 C 109.44401 12.86112 109.5927 12.903885 109.7207 12.949219 C 109.8487 12.993219 109.93204 13.035552 109.9707 13.074219 C 110.07337 12.972885 110.1946 12.817995 110.33594 12.611328 C 110.47727 12.407328 110.54883 12.125625 110.54883 11.765625 C 110.54883 11.522958 110.47727 11.315104 110.33594 11.148438 C 110.1946 10.981771 110.00377 10.846807 109.75977 10.744141 C 109.51577 10.641474 109.23344 10.564339 108.91211 10.513672 C 108.59211 10.461672 108.24929 10.4375 107.89062 10.4375 z M 116.05469 10.494141 C 115.24669 10.494141 114.55947 10.581906 113.99414 10.753906 C 113.43014 10.928573 112.97557 11.157932 112.62891 11.447266 C 112.28224 11.735266 112.02914 12.07613 111.86914 12.466797 C 111.70781 12.86013 111.62695 13.271651 111.62695 13.708984 C 111.62695 14.196984 111.70895 14.612938 111.87695 14.960938 C 112.04362 15.307604 112.28184 15.599224 112.58984 15.837891 C 112.89784 16.075224 113.27218 16.262964 113.71484 16.404297 C 114.15751 16.54563 114.65698 16.650224 115.20898 16.712891 L 116.47852 16.869141 C 117.08252 16.945141 117.50157 17.057078 117.74023 17.205078 C 117.97757 17.353078 118.0957 17.573141 118.0957 17.869141 C 118.0957 18.175807 117.95144 18.410313 117.66211 18.570312 C 117.37411 18.731646 116.88898 18.8125 116.20898 18.8125 C 115.68365 18.8125 115.19853 18.763969 114.75586 18.667969 C 114.31319 18.571969 113.92761 18.459411 113.59961 18.330078 C 113.27161 18.203411 113.00921 18.083943 112.81055 17.974609 C 112.61055 17.865276 112.49374 17.79124 112.45508 17.753906 L 111.41406 19.583984 C 111.46473 19.634651 111.61032 19.726661 111.84766 19.861328 C 112.08499 19.995995 112.40521 20.137156 112.81055 20.285156 C 113.21455 20.431823 113.70339 20.563688 114.27539 20.679688 C 114.84606 20.794354 115.49652 20.851562 116.22852 20.851562 C 117.78185 20.851562 118.95419 20.539922 119.74219 19.919922 C 120.53285 19.295922 120.92773 18.47951 120.92773 17.464844 C 120.92773 16.644844 120.65161 15.994198 120.09961 15.519531 C 119.54628 15.044865 118.66627 14.729505 117.46094 14.576172 L 115.80469 14.365234 C 115.26602 14.301234 114.88106 14.194255 114.65039 14.044922 C 114.41972 13.898255 114.30273 13.69812 114.30273 13.439453 C 114.30273 13.15812 114.4408 12.924948 114.7168 12.738281 C 114.99146 12.551615 115.51024 12.457031 116.26758 12.457031 C 116.81958 12.457031 117.30027 12.509995 117.71094 12.611328 C 118.1216 12.715328 118.46176 12.829651 118.73242 12.958984 C 119.00176 13.086984 119.20632 13.208219 119.34766 13.324219 C 119.48899 13.438885 119.57294 13.510443 119.59961 13.537109 C 119.79161 13.421109 119.97625 13.261354 120.15625 13.054688 C 120.33625 12.849354 120.42578 12.58076 120.42578 12.246094 C 120.42578 11.734094 120.08005 11.32787 119.38672 11.033203 C 119.16805 10.929203 118.78247 10.816833 118.23047 10.6875 C 117.67847 10.5595 116.95335 10.494141 116.05469 10.494141 z M 59.216797 10.763672 C 58.79413 10.763672 58.451312 10.847005 58.195312 11.013672 C 57.937979 11.180339 57.810547 11.481969 57.810547 11.917969 L 57.810547 16.482422 C 57.810547 17.919755 58.262635 19.00876 59.167969 19.746094 C 60.073302 20.486094 61.506703 20.851562 63.470703 20.851562 C 63.92137 20.851562 64.354151 20.839786 64.771484 20.814453 C 65.188818 20.787786 65.56625 20.763615 65.90625 20.738281 C 66.24625 20.712948 66.526807 20.68301 66.744141 20.652344 C 66.962807 20.61901 67.091573 20.595984 67.128906 20.583984 L 67.128906 10.994141 C 67.064906 10.968807 66.907536 10.924708 66.658203 10.859375 C 66.407536 10.794042 66.13451 10.763672 65.839844 10.763672 C 65.415844 10.763672 65.075693 10.847005 64.818359 11.013672 C 64.562359 11.180339 64.435547 11.481969 64.435547 11.917969 L 64.435547 18.523438 C 64.34488 18.548771 64.209917 18.569844 64.03125 18.589844 C 63.85125 18.609844 63.580703 18.619141 63.220703 18.619141 C 62.25937 18.619141 61.564625 18.413953 61.140625 18.001953 C 60.716625 17.59262 60.505859 16.995557 60.505859 16.212891 L 60.505859 10.994141 C 60.440526 10.968807 60.285823 10.924708 60.035156 10.859375 C 59.78449 10.794042 59.512797 10.763672 59.216797 10.763672 z M 70.076172 10.763672 C 69.805505 10.763672 69.585443 10.799094 69.412109 10.871094 C 69.240109 10.940427 69.096281 11.032438 68.988281 11.148438 C 68.878948 11.263104 68.801193 11.396922 68.755859 11.544922 C 68.711859 11.691589 68.689453 11.842047 68.689453 11.998047 C 68.689453 12.21538 68.721156 12.409318 68.785156 12.583984 C 68.849156 12.755984 68.934443 12.94701 69.037109 13.152344 C 69.075776 13.228344 69.165307 13.39501 69.306641 13.652344 C 69.447974 13.909677 69.619505 14.219271 69.826172 14.585938 C 70.031505 14.951271 70.262198 15.360594 70.519531 15.808594 C 70.775531 16.25926 71.034828 16.713115 71.298828 17.175781 C 71.561495 17.637115 71.825224 18.090536 72.087891 18.533203 C 72.350557 18.97587 72.59188 19.377661 72.810547 19.736328 L 72.232422 20.833984 C 71.963089 21.333984 71.686964 21.696542 71.404297 21.921875 C 71.12163 22.145875 70.782099 22.257812 70.384766 22.257812 C 70.115432 22.257812 69.847984 22.221865 69.583984 22.144531 C 69.321318 22.067198 69.152172 22.007417 69.076172 21.96875 L 68.304688 23.876953 C 68.318021 23.902286 68.389578 23.943286 68.517578 24.001953 C 68.645578 24.057953 68.807813 24.11826 69.007812 24.183594 C 69.206479 24.247594 69.44337 24.305422 69.720703 24.357422 C 69.996703 24.408089 70.293901 24.435547 70.615234 24.435547 C 71.153901 24.435547 71.625297 24.354693 72.029297 24.193359 C 72.43463 24.033359 72.795854 23.815062 73.117188 23.539062 C 73.438521 23.261729 73.722797 22.947703 73.966797 22.595703 C 74.209464 22.24237 74.44149 21.874234 74.660156 21.490234 C 75.134823 20.668901 75.566365 19.85788 75.957031 19.060547 C 76.349031 18.26588 76.731516 17.446276 77.103516 16.599609 C 77.283516 16.187609 77.479406 15.736667 77.691406 15.25 C 77.903406 14.762 78.111693 14.279542 78.318359 13.796875 C 78.523693 13.316875 78.708333 12.860354 78.875 12.429688 C 79.041667 12.000354 79.169099 11.628932 79.259766 11.322266 C 79.207766 11.258266 79.061026 11.148807 78.818359 10.994141 C 78.574359 10.839474 78.247937 10.763672 77.835938 10.763672 C 77.347938 10.763672 77.000875 10.87313 76.796875 11.091797 C 76.591542 11.30913 76.417344 11.584635 76.277344 11.917969 C 76.21201 12.059302 76.112562 12.299292 75.976562 12.640625 C 75.843229 12.980625 75.680281 13.382417 75.488281 13.84375 C 75.294948 14.306417 75.085328 14.810135 74.861328 15.355469 C 74.637328 15.900802 74.402823 16.443755 74.160156 16.982422 C 73.850823 16.418422 73.531745 15.808964 73.205078 15.154297 C 72.878411 14.500964 72.575448 13.882021 72.300781 13.304688 C 72.024781 12.727354 71.786557 12.226734 71.587891 11.802734 C 71.389224 11.380068 71.269135 11.116339 71.230469 11.013672 C 71.217135 11.003005 71.12026 10.956859 70.933594 10.880859 C 70.74826 10.803526 70.460172 10.763672 70.076172 10.763672 z M 96.724609 12.285156 C 97.095276 12.285156 97.410635 12.339885 97.667969 12.449219 C 97.923969 12.558552 98.128536 12.694661 98.283203 12.861328 C 98.43787 13.027995 98.550427 13.214589 98.621094 13.419922 C 98.690427 13.625255 98.726562 13.818047 98.726562 13.998047 C 98.726562 14.346047 98.663156 14.60401 98.535156 14.777344 C 98.405823 14.95201 98.129698 15.039062 97.707031 15.039062 L 94.257812 15.039062 C 94.257812 14.744396 94.310063 14.433281 94.414062 14.113281 C 94.516729 13.791948 94.669667 13.497849 94.875 13.228516 C 95.080333 12.959182 95.336531 12.734687 95.644531 12.554688 C 95.953865 12.374688 96.312609 12.285156 96.724609 12.285156 z M 50.283203 12.669922 C 51.027203 12.669922 51.608057 12.942948 52.025391 13.488281 C 52.441391 14.034948 52.650391 14.75563 52.650391 15.654297 C 52.650391 16.10363 52.591417 16.516484 52.46875 16.896484 C 52.346083 17.275151 52.160823 17.607339 51.910156 17.888672 C 51.65949 18.172672 51.337932 18.389635 50.947266 18.542969 C 50.555266 18.696302 50.090781 18.773438 49.550781 18.773438 C 49.140115 18.773438 48.806161 18.75351 48.548828 18.714844 C 48.291495 18.67751 48.124828 18.638896 48.048828 18.601562 L 48.048828 15.232422 C 48.048828 14.500422 48.235422 13.890344 48.607422 13.402344 C 48.980755 12.91301 49.53787 12.669922 50.283203 12.669922 z M 136.67188 26.933594 C 136.54254 26.933594 136.45964 27.011104 136.43164 27.148438 L 136.36719 27.460938 C 136.33919 27.598271 136.3902 27.664062 136.51953 27.664062 L 136.62891 27.664062 C 136.75957 27.664062 136.83723 27.598271 136.86523 27.460938 L 136.92969 27.148438 C 136.95769 27.011104 136.90668 26.933594 136.77734 26.933594 L 136.67188 26.933594 z M 137.90234 26.933594 C 137.77168 26.933594 137.69011 27.011104 137.66211 27.148438 L 137.59961 27.460938 C 137.57161 27.598271 137.62262 27.664062 137.75195 27.664062 L 137.85938 27.664062 C 137.98871 27.664062 138.07747 27.598271 138.10547 27.460938 L 138.16992 27.148438 C 138.19792 27.011104 138.1391 26.933594 138.00977 26.933594 L 137.90234 26.933594 z M 146.28711 26.933594 C 146.15778 26.933594 146.07683 27.011104 146.04883 27.148438 L 145.98438 27.460938 C 145.95638 27.598271 146.00739 27.664062 146.13672 27.664062 L 146.24609 27.664062 C 146.37543 27.664062 146.45442 27.598271 146.48242 27.460938 L 146.54688 27.148438 C 146.57487 27.011104 146.52386 26.933594 146.39453 26.933594 L 146.28711 26.933594 z M 147.52148 26.933594 C 147.38948 26.933594 147.3073 27.011104 147.2793 27.148438 L 147.2168 27.460938 C 147.1888 27.598271 147.24105 27.664062 147.37305 27.664062 L 147.47656 27.664062 C 147.6059 27.664062 147.69466 27.598271 147.72266 27.460938 L 147.78711 27.148438 C 147.81511 27.011104 147.75629 26.933594 147.62695 26.933594 L 147.52148 26.933594 z M 154.55664 26.933594 C 154.42731 26.933594 154.34636 27.011104 154.31836 27.148438 L 154.25391 27.460938 C 154.22591 27.598271 154.27692 27.664062 154.40625 27.664062 L 154.51562 27.664062 C 154.64629 27.664062 154.72395 27.598271 154.75195 27.460938 L 154.81641 27.148438 C 154.84441 27.011104 154.7934 26.933594 154.66406 26.933594 L 154.55664 26.933594 z M 155.79102 26.933594 C 155.65902 26.933594 155.57683 27.011104 155.54883 27.148438 L 155.48633 27.460938 C 155.45833 27.598271 155.50863 27.664062 155.64062 27.664062 L 155.74609 27.664062 C 155.87543 27.664062 155.96419 27.598271 155.99219 27.460938 L 156.05664 27.148438 C 156.08464 27.011104 156.02582 26.933594 155.89648 26.933594 L 155.79102 26.933594 z M 49.388672 26.941406 C 49.282005 26.941406 49.190766 26.994615 49.134766 27.113281 L 46.025391 32.673828 C 45.954724 32.825828 45.990484 32.919922 46.146484 32.919922 L 46.316406 32.919922 C 46.431073 32.919922 46.523365 32.868667 46.582031 32.75 L 47.539062 31.015625 L 49.839844 31.015625 L 50.095703 32.75 C 50.103703 32.868667 50.175016 32.919922 50.291016 32.919922 L 50.470703 32.919922 C 50.616036 32.919922 50.692927 32.825828 50.683594 32.673828 L 49.84375 27.113281 C 49.834417 26.994615 49.76487 26.941406 49.658203 26.941406 L 49.388672 26.941406 z M 52.841797 26.941406 C 52.712464 26.941406 52.631516 27.017583 52.603516 27.15625 L 51.634766 31.908203 C 51.444099 32.84287 52.024708 32.955078 52.359375 32.955078 C 52.515375 32.955078 52.586615 32.869568 52.613281 32.740234 L 52.638672 32.615234 C 52.665339 32.485901 52.603193 32.435115 52.505859 32.425781 C 52.332526 32.401781 52.099651 32.342641 52.208984 31.806641 L 53.158203 27.15625 C 53.186203 27.017583 53.130047 26.941406 52.998047 26.941406 L 52.841797 26.941406 z M 66.142578 26.941406 C 66.010578 26.941406 65.930344 27.018917 65.902344 27.15625 L 64.771484 32.707031 C 64.743484 32.841698 64.791828 32.919922 64.923828 32.919922 L 65.052734 32.919922 C 65.184734 32.919922 65.272875 32.841943 65.296875 32.724609 L 65.355469 32.443359 C 65.394135 32.256693 65.384766 32.130859 65.384766 32.130859 L 65.400391 32.130859 C 65.400391 32.130859 65.59713 33.021484 66.591797 33.021484 C 67.670464 33.021484 68.621104 32.138677 68.898438 30.777344 C 69.169104 29.458677 68.672979 28.541016 67.570312 28.541016 C 66.518313 28.541016 65.980469 29.417969 65.980469 29.417969 L 65.964844 29.417969 C 65.964844 29.417969 66.02774 29.263646 66.066406 29.070312 L 66.457031 27.15625 C 66.485031 27.018917 66.426208 26.941406 66.296875 26.941406 L 66.142578 26.941406 z M 101.63086 26.941406 C 101.49886 26.941406 101.41862 27.019536 101.39062 27.158203 L 101.32812 27.460938 C 101.30013 27.598271 101.35042 27.664062 101.48242 27.664062 L 101.6875 27.664062 C 101.81683 27.664062 101.89583 27.598271 101.92383 27.460938 L 101.98633 27.158203 C 102.01433 27.019536 101.96332 26.941406 101.83398 26.941406 L 101.63086 26.941406 z M 107.45898 26.941406 C 107.32965 26.941406 107.2487 27.019536 107.2207 27.158203 L 107.1582 27.460938 C 107.1302 27.598271 107.18121 27.664062 107.31055 27.664062 L 107.51562 27.664062 C 107.64762 27.664062 107.72591 27.598271 107.75391 27.460938 L 107.81641 27.158203 C 107.84441 27.019536 107.79278 26.941406 107.66211 26.941406 L 107.45898 26.941406 z M 116.08984 26.941406 C 115.95784 26.941406 115.87566 27.019536 115.84766 27.158203 L 115.78516 27.460938 C 115.75716 27.598271 115.81074 27.664062 115.94141 27.664062 L 116.14453 27.664062 C 116.27386 27.664062 116.35286 27.598271 116.38086 27.460938 L 116.44336 27.158203 C 116.47136 27.019536 116.4223 26.941406 116.29297 26.941406 L 116.08984 26.941406 z M 122.27148 26.941406 C 122.13948 26.941406 122.0573 27.019536 122.0293 27.158203 L 121.9668 27.460938 C 121.9388 27.598271 121.99105 27.664062 122.12305 27.664062 L 122.32617 27.664062 C 122.45551 27.664062 122.5345 27.598271 122.5625 27.460938 L 122.625 27.158203 C 122.653 27.019536 122.60199 26.941406 122.47266 26.941406 L 122.27148 26.941406 z M 133.8418 26.941406 C 133.71246 26.941406 133.62175 27.018917 133.59375 27.15625 L 133.20312 29.078125 C 133.16713 29.255458 133.16211 29.398438 133.16211 29.398438 L 133.14453 29.398438 C 133.14453 29.398438 132.96928 28.541016 131.97461 28.541016 C 130.89728 28.541016 129.94983 29.425344 129.67383 30.777344 C 129.40316 32.102677 129.90124 33.021484 131.00391 33.021484 C 132.07991 33.021484 132.61133 32.130859 132.61133 32.130859 L 132.63086 32.130859 C 132.63086 32.130859 132.57497 32.239958 132.54297 32.390625 L 132.47656 32.714844 C 132.44856 32.852177 132.50996 32.919922 132.64062 32.919922 L 132.7793 32.919922 C 132.9113 32.919922 132.98958 32.841698 133.01758 32.707031 L 134.14844 27.15625 C 134.17644 27.018917 134.13005 26.941406 133.99805 26.941406 L 133.8418 26.941406 z M 170.3125 26.943359 C 170.1805 26.943359 170.09307 27.017583 170.06641 27.15625 L 169.27539 31.152344 C 169.25006 31.27901 169.30683 31.353516 169.4375 31.353516 L 169.56055 31.353516 C 169.69121 31.353516 169.77154 31.27901 169.79688 31.152344 L 170.63672 27.15625 C 170.66472 27.017583 170.60704 26.943359 170.48438 26.943359 L 170.3125 26.943359 z M 75.046875 27.462891 C 74.917542 27.462891 74.827448 27.537828 74.800781 27.673828 L 74.597656 28.677734 L 74.246094 28.677734 C 74.115427 28.677734 74.035812 28.753292 74.007812 28.890625 L 73.992188 28.958984 C 73.965521 29.093651 74.014484 29.162109 74.146484 29.162109 L 74.490234 29.162109 L 74.037109 31.380859 C 73.831776 32.383526 74.262203 32.955078 75.158203 32.955078 C 75.322203 32.955078 75.403641 32.88538 75.431641 32.748047 L 75.453125 32.638672 C 75.482458 32.496005 75.434057 32.443115 75.275391 32.425781 C 74.960724 32.411115 74.406089 32.289401 74.607422 31.302734 L 75.044922 29.162109 L 75.876953 29.162109 C 76.006286 29.162109 76.094427 29.093651 76.121094 28.958984 L 76.134766 28.890625 C 76.162766 28.753292 76.105896 28.677734 75.976562 28.677734 L 75.142578 28.677734 L 75.347656 27.673828 C 75.374323 27.537828 75.324646 27.462891 75.195312 27.462891 L 75.046875 27.462891 z M 49.394531 27.554688 L 49.412109 27.554688 C 49.412109 27.554688 49.428938 28.057891 49.460938 28.337891 L 49.779297 30.505859 L 47.804688 30.505859 L 49.013672 28.337891 C 49.160339 28.057891 49.394531 27.554688 49.394531 27.554688 z M 56.060547 28.541016 C 54.94988 28.541016 53.862839 29.38249 53.576172 30.785156 C 53.308172 32.103823 54.043578 33.021484 55.267578 33.021484 C 55.930245 33.021484 56.478995 32.715589 56.736328 32.544922 C 56.849661 32.467589 56.88499 32.366958 56.847656 32.265625 L 56.806641 32.164062 C 56.763974 32.053396 56.676208 32.037995 56.546875 32.111328 C 56.326875 32.265995 55.903958 32.501953 55.390625 32.501953 C 54.541292 32.501953 53.949151 31.884255 54.146484 30.794922 L 57.099609 30.794922 C 57.222276 30.794922 57.332089 30.702031 57.357422 30.582031 C 57.605422 29.367365 57.152547 28.541016 56.060547 28.541016 z M 62.884766 28.541016 C 62.246099 28.541016 61.74062 28.781349 61.501953 28.916016 C 61.383286 28.984016 61.342719 29.093792 61.386719 29.203125 L 61.417969 29.289062 C 61.469969 29.398396 61.556307 29.417422 61.681641 29.357422 C 61.893641 29.238755 62.280328 29.060547 62.736328 29.060547 C 63.316328 29.060547 63.691437 29.340682 63.523438 30.166016 L 63.496094 30.300781 L 63.257812 30.300781 C 62.467146 30.300781 60.738458 30.377438 60.453125 31.773438 C 60.285125 32.597437 60.892604 33.021484 61.585938 33.021484 C 62.605937 33.021484 63.179875 32.044922 63.171875 32.044922 L 63.1875 32.044922 C 63.1875 32.044922 63.137656 32.172521 63.097656 32.367188 L 63.029297 32.707031 C 62.999964 32.851031 63.059406 32.917969 63.191406 32.917969 L 63.320312 32.917969 C 63.450979 32.917969 63.532547 32.841698 63.560547 32.707031 L 64.074219 30.181641 C 64.292885 29.110974 63.863432 28.541016 62.884766 28.541016 z M 71.773438 28.541016 C 71.137438 28.541016 70.632578 28.781349 70.392578 28.916016 C 70.272578 28.984016 70.233344 29.093792 70.277344 29.203125 L 70.308594 29.289062 C 70.35926 29.398396 70.444979 29.417422 70.570312 29.357422 C 70.783646 29.238755 71.172906 29.060547 71.628906 29.060547 C 72.20624 29.060547 72.582062 29.340682 72.414062 30.166016 L 72.384766 30.300781 L 72.150391 30.300781 C 71.359724 30.300781 69.629083 30.377438 69.34375 31.773438 C 69.17575 32.597437 69.785182 33.021484 70.478516 33.021484 C 71.498516 33.021484 72.0705 32.044922 72.0625 32.044922 L 72.080078 32.044922 C 72.080078 32.044922 72.030234 32.172521 71.990234 32.367188 L 71.919922 32.707031 C 71.890589 32.851031 71.950745 32.917969 72.080078 32.917969 L 72.212891 32.917969 C 72.342224 32.917969 72.423172 32.841698 72.451172 32.707031 L 72.964844 30.181641 C 73.18351 29.110974 72.754771 28.541016 71.773438 28.541016 z M 80.730469 28.541016 C 79.514469 28.541016 78.388474 29.468443 78.119141 30.787109 C 77.848474 32.112443 78.593026 33.021484 79.818359 33.021484 C 80.575693 33.021484 81.140052 32.655229 81.386719 32.476562 C 81.494719 32.391229 81.53876 32.298167 81.496094 32.1875 L 81.455078 32.103516 C 81.405745 31.984849 81.319932 31.967401 81.197266 32.052734 C 80.967932 32.223401 80.516599 32.503906 79.947266 32.503906 C 79.039266 32.503906 78.480833 31.797776 78.6875 30.787109 C 78.896833 29.765776 79.742578 29.060547 80.642578 29.060547 C 81.138578 29.060547 81.448323 29.304505 81.597656 29.451172 C 81.696323 29.527172 81.785479 29.52687 81.882812 29.408203 L 81.957031 29.316406 C 82.062365 29.204406 82.076807 29.102724 81.994141 29.025391 C 81.826141 28.854724 81.431802 28.541016 80.730469 28.541016 z M 85.025391 28.541016 C 83.833391 28.541016 82.668823 29.493099 82.410156 30.759766 C 82.146156 32.053099 82.919141 33.021484 84.119141 33.021484 C 85.311141 33.021484 86.478188 32.053099 86.742188 30.759766 C 87.000854 29.493099 86.224057 28.541016 85.025391 28.541016 z M 90.208984 28.541016 C 89.563651 28.541016 88.79399 29.076964 88.472656 29.654297 L 88.455078 29.654297 C 88.455078 29.654297 88.517448 29.520276 88.550781 29.349609 L 88.652344 28.855469 C 88.680344 28.720802 88.620714 28.644531 88.498047 28.644531 L 88.353516 28.644531 C 88.221516 28.644531 88.131516 28.720802 88.103516 28.855469 L 87.318359 32.708984 C 87.290359 32.842318 87.347849 32.917969 87.478516 32.917969 L 87.634766 32.917969 C 87.764099 32.917969 87.847 32.842318 87.875 32.708984 L 88.251953 30.853516 C 88.427953 29.986849 89.186198 29.070312 90.019531 29.070312 C 90.795531 29.070312 90.755667 29.698417 90.625 30.34375 L 90.142578 32.708984 C 90.114578 32.842318 90.173401 32.917969 90.302734 32.917969 L 90.458984 32.917969 C 90.589651 32.917969 90.668646 32.842318 90.695312 32.708984 L 91.076172 30.853516 C 91.254839 29.970849 91.994359 29.070312 92.818359 29.070312 C 93.561026 29.070312 93.580167 29.646417 93.4375 30.34375 L 92.957031 32.708984 C 92.929031 32.842318 92.986521 32.917969 93.117188 32.917969 L 93.265625 32.917969 C 93.396292 32.917969 93.485672 32.842318 93.513672 32.708984 L 94.023438 30.199219 C 94.239437 29.147219 93.993333 28.541016 93 28.541016 C 92.314667 28.541016 91.610151 29.068661 91.271484 29.611328 L 91.253906 29.611328 C 91.284573 28.905995 90.967651 28.541016 90.208984 28.541016 z M 98.8125 28.541016 C 98.063167 28.541016 97.333828 28.948234 97.173828 29.740234 C 96.884495 31.152234 99.141312 30.863599 98.945312 31.822266 C 98.853313 32.271599 98.426703 32.511719 97.970703 32.511719 C 97.440036 32.511719 97.116844 32.265807 96.964844 32.119141 C 96.866177 32.045807 96.776307 32.05225 96.681641 32.15625 L 96.599609 32.240234 C 96.503609 32.349568 96.489599 32.451964 96.572266 32.529297 C 96.738932 32.707964 97.142042 33.021484 97.859375 33.021484 C 98.674042 33.021484 99.348188 32.519786 99.492188 31.814453 C 99.784187 30.38512 97.533661 30.70151 97.736328 29.714844 C 97.830995 29.248177 98.245734 29.052734 98.677734 29.052734 C 99.109734 29.052734 99.369953 29.212219 99.501953 29.324219 C 99.601953 29.390885 99.703016 29.381005 99.791016 29.263672 L 99.869141 29.171875 C 99.957141 29.061208 99.959187 28.958005 99.867188 28.888672 C 99.723188 28.760672 99.4005 28.541016 98.8125 28.541016 z M 110.96094 28.541016 C 109.99827 28.541016 109.31146 29.26363 109.07812 29.654297 L 109.06055 29.654297 C 109.06055 29.654297 109.12292 29.520276 109.15625 29.349609 L 109.25781 28.855469 C 109.28581 28.720802 109.22556 28.644531 109.10156 28.644531 L 108.95898 28.644531 C 108.82698 28.644531 108.73698 28.720802 108.70898 28.855469 L 107.92383 32.708984 C 107.89583 32.842318 107.95332 32.917969 108.08398 32.917969 L 108.24023 32.917969 C 108.36957 32.917969 108.45247 32.842318 108.48047 32.708984 L 108.86133 30.826172 C 109.06533 29.831505 109.90401 29.085938 110.77734 29.085938 C 111.56801 29.085938 111.55202 29.680896 111.41602 30.351562 L 110.93359 32.708984 C 110.90693 32.842318 110.95856 32.917969 111.08789 32.917969 L 111.24219 32.917969 C 111.37419 32.917969 111.46028 32.842318 111.48828 32.708984 L 112 30.199219 C 112.21467 29.147219 111.9796 28.541016 110.96094 28.541016 z M 119.28906 28.541016 C 118.07306 28.541016 116.94511 29.468443 116.67578 30.787109 C 116.42778 32.001776 117.02746 32.869427 118.07812 32.996094 L 117.87695 33.462891 C 117.82495 33.600224 117.88004 33.677547 117.9707 33.685547 C 118.19337 33.701547 118.34726 33.795755 118.30859 33.982422 C 118.26459 34.202422 118.05423 34.271484 117.85156 34.271484 C 117.7449 34.271484 117.70791 34.246094 117.64258 34.246094 C 117.55324 34.246094 117.49142 34.349651 117.46875 34.458984 C 117.43008 34.653651 117.67969 34.662109 117.81836 34.662109 C 118.21969 34.662109 118.6389 34.484901 118.74023 33.990234 C 118.80823 33.650234 118.60764 33.438719 118.29297 33.386719 L 118.43164 33.021484 C 119.16231 33.004151 119.69731 32.655229 119.94531 32.476562 C 120.05198 32.391229 120.09673 32.30012 120.05273 32.189453 L 120.01367 32.103516 C 119.96434 31.984849 119.87657 31.967401 119.75391 32.052734 C 119.52324 32.223401 119.07457 32.503906 118.50391 32.503906 C 117.59724 32.503906 117.04076 31.799109 117.24609 30.787109 C 117.45543 29.765776 118.30055 29.060547 119.19922 29.060547 C 119.69789 29.060547 120.00558 29.304505 120.15625 29.451172 C 120.25358 29.527172 120.34274 29.52749 120.44141 29.410156 L 120.51953 29.316406 C 120.62086 29.204406 120.63345 29.102724 120.55078 29.025391 C 120.38278 28.856057 119.9904 28.541016 119.28906 28.541016 z M 125.76953 28.541016 C 124.80686 28.541016 124.12005 29.26363 123.88672 29.654297 L 123.86914 29.654297 C 123.86914 29.654297 123.93151 29.520276 123.96484 29.349609 L 124.06641 28.855469 C 124.09441 28.720802 124.03611 28.644531 123.91211 28.644531 L 123.76758 28.644531 C 123.63558 28.644531 123.54558 28.720802 123.51758 28.855469 L 122.73242 32.708984 C 122.70442 32.842318 122.76386 32.917969 122.89453 32.917969 L 123.05078 32.917969 C 123.18011 32.917969 123.26106 32.842318 123.28906 32.708984 L 123.67188 30.826172 C 123.87587 29.831505 124.7126 29.085938 125.58594 29.085938 C 126.3766 29.085938 126.36061 29.680896 126.22461 30.351562 L 125.74414 32.708984 C 125.71614 32.842318 125.7652 32.917969 125.89453 32.917969 L 126.05078 32.917969 C 126.18278 32.917969 126.27083 32.842318 126.29883 32.708984 L 126.81055 30.199219 C 127.02521 29.147219 126.7882 28.541016 125.76953 28.541016 z M 137.01172 28.541016 C 135.81972 28.541016 134.65577 29.491766 134.39844 30.759766 C 134.1331 32.051766 134.90547 33.021484 136.10547 33.021484 C 137.29747 33.021484 138.46647 32.051766 138.73047 30.759766 C 138.98914 29.491766 138.21172 28.541016 137.01172 28.541016 z M 142.34375 28.541016 C 141.38108 28.541016 140.69427 29.26363 140.46094 29.654297 L 140.44336 29.654297 C 140.44336 29.654297 140.50378 29.520276 140.53711 29.349609 L 140.63867 28.855469 C 140.66667 28.720802 140.60837 28.644531 140.48438 28.644531 L 140.33984 28.644531 C 140.20784 28.644531 140.1198 28.720802 140.0918 28.855469 L 139.30664 32.708984 C 139.27864 32.842318 139.33613 32.917969 139.4668 32.917969 L 139.62305 32.917969 C 139.75238 32.917969 139.83333 32.842318 139.86133 32.708984 L 140.24414 30.826172 C 140.44814 29.831505 141.28487 29.085938 142.1582 29.085938 C 142.9502 29.085938 142.93287 29.680896 142.79688 30.351562 L 142.31641 32.708984 C 142.28974 32.842318 142.34137 32.917969 142.4707 32.917969 L 142.625 32.917969 C 142.757 32.917969 142.84309 32.842318 142.87109 32.708984 L 143.38281 30.199219 C 143.59748 29.147219 143.36242 28.541016 142.34375 28.541016 z M 150.86719 28.541016 C 150.11519 28.541016 149.3879 28.948234 149.22656 29.740234 C 148.93856 31.150901 151.19209 30.864932 150.99609 31.822266 C 150.90409 32.272932 150.4821 32.511719 150.02344 32.511719 C 149.49277 32.511719 149.16886 32.264474 149.01953 32.119141 C 148.92086 32.044474 148.82904 32.05163 148.73438 32.154297 L 148.65039 32.240234 C 148.55439 32.349568 148.54038 32.451964 148.62305 32.529297 C 148.76971 32.69063 149.10936 32.954385 149.69336 33.011719 L 149.50391 33.462891 C 149.44924 33.600224 149.5077 33.677547 149.5957 33.685547 C 149.82104 33.70288 149.97288 33.794422 149.93555 33.982422 C 149.89021 34.202422 149.6819 34.271484 149.47656 34.271484 C 149.37123 34.271484 149.33682 34.246094 149.27148 34.246094 C 149.18082 34.246094 149.11704 34.347698 149.0957 34.457031 C 149.05437 34.651698 149.30727 34.662109 149.44727 34.662109 C 149.84593 34.662109 150.26585 34.484901 150.36719 33.990234 C 150.43652 33.651568 150.2353 33.436766 149.91797 33.384766 L 150.06055 33.011719 C 150.80455 32.962385 151.41026 32.47712 151.54492 31.814453 C 151.83692 30.38512 149.58382 30.70151 149.78516 29.714844 C 149.88116 29.248177 150.29652 29.052734 150.72852 29.052734 C 151.16185 29.052734 151.42331 29.212219 151.55664 29.324219 C 151.65664 29.390885 151.75504 29.382339 151.8457 29.263672 L 151.91992 29.171875 C 152.00792 29.061208 152.01387 28.959958 151.92188 28.890625 C 151.77654 28.762625 151.45519 28.541016 150.86719 28.541016 z M 163.78125 28.541016 C 162.59058 28.541016 161.42664 29.493099 161.16797 30.759766 C 160.90397 32.053099 161.67695 33.021484 162.87695 33.021484 C 164.06629 33.021484 165.23405 32.053099 165.49805 30.759766 C 165.75671 29.493099 164.97992 28.541016 163.78125 28.541016 z M 60.582031 28.617188 C 59.928698 28.617188 59.348057 29.155391 59.025391 29.775391 L 59.007812 29.775391 C 59.007813 29.775391 59.070708 29.622214 59.109375 29.435547 L 59.228516 28.855469 C 59.256516 28.720802 59.198219 28.644531 59.074219 28.644531 L 58.929688 28.644531 C 58.797688 28.644531 58.709641 28.720802 58.681641 28.855469 L 57.896484 32.708984 C 57.868484 32.842318 57.924641 32.917969 58.056641 32.917969 L 58.210938 32.917969 C 58.341604 32.917969 58.423172 32.842318 58.451172 32.708984 L 58.777344 31.107422 C 58.96001 30.215422 59.587172 29.1875 60.451172 29.1875 C 60.589839 29.1875 60.692703 29.109896 60.720703 28.976562 L 60.753906 28.822266 C 60.780573 28.686266 60.728698 28.617188 60.582031 28.617188 z M 168.76172 28.617188 C 168.10972 28.617188 167.52579 29.155391 167.20312 29.775391 L 167.1875 29.775391 C 167.1875 29.775391 167.2504 29.622214 167.28906 29.435547 L 167.4082 28.855469 C 167.43487 28.720802 167.37657 28.644531 167.25391 28.644531 L 167.10742 28.644531 C 166.97809 28.644531 166.88933 28.720802 166.86133 28.855469 L 166.07617 32.708984 C 166.04817 32.842318 166.10699 32.917969 166.23633 32.917969 L 166.39062 32.917969 C 166.52262 32.917969 166.60224 32.842318 166.62891 32.708984 L 166.95508 31.107422 C 167.13774 30.215422 167.76357 29.1875 168.62891 29.1875 C 168.76891 29.1875 168.87372 29.109896 168.90039 28.976562 L 168.93359 28.822266 C 168.96026 28.686266 168.90972 28.617188 168.76172 28.617188 z M 101.30859 28.644531 C 101.17659 28.644531 101.08659 28.720802 101.05859 28.855469 L 100.27344 32.708984 C 100.24544 32.842318 100.30488 32.917969 100.43555 32.917969 L 100.5918 32.917969 C 100.72113 32.917969 100.80208 32.842318 100.83008 32.708984 L 101.61523 28.855469 C 101.64323 28.720802 101.59222 28.644531 101.46289 28.644531 L 101.30859 28.644531 z M 102.86523 28.644531 C 102.7359 28.644531 102.65495 28.720802 102.62695 28.855469 L 102.60938 28.949219 C 102.58404 29.078552 102.63239 29.154297 102.76172 29.154297 L 104.67188 29.154297 C 104.94121 29.154297 105.08398 29.138672 105.08398 29.138672 L 105.08008 29.154297 C 105.08008 29.154297 104.88049 29.332922 104.67383 29.544922 L 101.88281 32.425781 C 101.80948 32.503115 101.77329 32.569828 101.75195 32.673828 L 101.73828 32.732422 C 101.71428 32.852422 101.76715 32.919922 101.89648 32.919922 L 104.94727 32.919922 C 105.07927 32.919922 105.1595 32.841698 105.1875 32.707031 L 105.20508 32.613281 C 105.23041 32.483948 105.1834 32.412109 105.05273 32.412109 L 102.95508 32.412109 C 102.68574 32.412109 102.53516 32.425781 102.53516 32.425781 L 102.53711 32.412109 C 102.53711 32.412109 102.75446 32.232245 102.95312 32.017578 L 105.75195 29.138672 C 105.82395 29.061339 105.86539 28.993292 105.88672 28.890625 L 105.89844 28.830078 C 105.92244 28.711411 105.87028 28.644531 105.73828 28.644531 L 102.86523 28.644531 z M 107.13672 28.644531 C 107.00739 28.644531 106.91667 28.720802 106.88867 28.855469 L 106.10352 32.708984 C 106.07552 32.842318 106.13434 32.917969 106.26367 32.917969 L 106.41797 32.917969 C 106.54997 32.917969 106.63154 32.842318 106.6582 32.708984 L 107.44336 28.855469 C 107.47003 28.720802 107.42302 28.644531 107.29102 28.644531 L 107.13672 28.644531 z M 115.76758 28.644531 C 115.63558 28.644531 115.54558 28.720802 115.51758 28.855469 L 114.73242 32.708984 C 114.70442 32.842318 114.76191 32.917969 114.89258 32.917969 L 115.04883 32.917969 C 115.17816 32.917969 115.26106 32.842318 115.28906 32.708984 L 116.07422 28.855469 C 116.10222 28.720802 116.05121 28.644531 115.92188 28.644531 L 115.76758 28.644531 z M 121.94727 28.644531 C 121.81527 28.644531 121.72722 28.720802 121.69922 28.855469 L 120.91406 32.708984 C 120.88606 32.842318 120.94355 32.917969 121.07422 32.917969 L 121.22852 32.917969 C 121.35918 32.917969 121.44075 32.842318 121.46875 32.708984 L 122.25391 28.855469 C 122.28057 28.720802 122.2309 28.644531 122.10156 28.644531 L 121.94727 28.644531 z M 145.04883 28.644531 C 144.91949 28.644531 144.83855 28.720802 144.81055 28.855469 L 144.29883 31.365234 C 144.07216 32.478568 144.36003 33.021484 145.33203 33.021484 C 146.23736 33.021484 146.93383 32.324203 147.17383 31.908203 L 147.18945 31.908203 C 147.18945 31.908203 147.13685 32.046224 147.10352 32.212891 L 147.00195 32.708984 C 146.97395 32.842318 147.02496 32.917969 147.1543 32.917969 L 147.30273 32.917969 C 147.43473 32.917969 147.51302 32.842318 147.54102 32.708984 L 148.32617 28.855469 C 148.35417 28.720802 148.30583 28.644531 148.17383 28.644531 L 148.01953 28.644531 C 147.88886 28.644531 147.79948 28.720802 147.77148 28.855469 L 147.39844 30.693359 C 147.21044 31.618693 146.45429 32.478516 145.51562 32.478516 C 144.72496 32.478516 144.74743 31.882937 144.88477 31.210938 L 145.36523 28.855469 C 145.3919 28.720802 145.33441 28.644531 145.20508 28.644531 L 145.04883 28.644531 z M 153.31836 28.644531 C 153.18903 28.644531 153.10808 28.720802 153.08008 28.855469 L 152.56836 31.365234 C 152.34169 32.478568 152.62956 33.021484 153.60156 33.021484 C 154.5069 33.021484 155.20336 32.324203 155.44336 31.908203 L 155.45898 31.908203 C 155.45898 31.908203 155.40638 32.046224 155.37305 32.212891 L 155.27148 32.708984 C 155.24348 32.842318 155.29449 32.917969 155.42383 32.917969 L 155.57227 32.917969 C 155.70427 32.917969 155.78255 32.842318 155.81055 32.708984 L 156.5957 28.855469 C 156.6237 28.720802 156.57536 28.644531 156.44336 28.644531 L 156.28906 28.644531 C 156.1584 28.644531 156.06902 28.720802 156.04102 28.855469 L 155.66602 30.693359 C 155.47802 31.618693 154.72382 32.478516 153.78516 32.478516 C 152.99316 32.478516 153.01696 31.882937 153.1543 31.210938 L 153.63477 28.855469 C 153.66143 28.720802 153.60394 28.644531 153.47461 28.644531 L 153.31836 28.644531 z M 157.57617 28.644531 C 157.42817 28.644531 157.34114 28.744672 157.36914 28.888672 L 158.16797 32.886719 L 157.80273 33.490234 C 157.57073 33.863568 157.25729 34.195312 156.89062 34.195312 C 156.74396 34.195312 156.63602 34.127984 156.55469 34.083984 C 156.46402 34.051984 156.3664 34.076214 156.28906 34.185547 L 156.21875 34.279297 C 156.15075 34.381964 156.15791 34.502068 156.25391 34.552734 C 156.37124 34.620734 156.54916 34.705078 156.78516 34.705078 C 157.33182 34.705078 157.83225 34.339109 158.15625 33.787109 L 161.08984 28.888672 C 161.16851 28.735339 161.1219 28.644531 160.97656 28.644531 L 160.79883 28.644531 C 160.67483 28.644531 160.5972 28.693833 160.5332 28.8125 L 158.80469 31.765625 C 158.68069 31.976292 158.57422 32.212891 158.57422 32.212891 L 158.55859 32.212891 C 158.55859 32.212891 158.53191 31.976292 158.50391 31.765625 L 157.95703 28.804688 C 157.9397 28.694021 157.88305 28.644531 157.76172 28.644531 L 157.57617 28.644531 z M 55.945312 29.017578 C 56.555979 29.017578 56.989177 29.458661 56.839844 30.361328 L 54.259766 30.361328 C 54.569099 29.493328 55.259979 29.017578 55.945312 29.017578 z M 84.925781 29.060547 C 85.799115 29.060547 86.367255 29.793099 86.169922 30.759766 C 85.967255 31.754432 85.097943 32.503906 84.224609 32.503906 C 83.343276 32.503906 82.777802 31.754432 82.980469 30.759766 C 83.177802 29.793099 84.044448 29.060547 84.925781 29.060547 z M 136.91406 29.060547 C 137.7874 29.060547 138.35554 29.791766 138.1582 30.759766 C 137.95554 31.754432 137.08427 32.503906 136.21094 32.503906 C 135.33094 32.503906 134.76608 31.754432 134.96875 30.759766 C 135.16742 29.791766 136.03406 29.060547 136.91406 29.060547 z M 163.68359 29.060547 C 164.55693 29.060547 165.12507 29.793099 164.92773 30.759766 C 164.72507 31.754432 163.85576 32.503906 162.98242 32.503906 C 162.09976 32.503906 161.53499 31.754432 161.73633 30.759766 C 161.93366 29.793099 162.80093 29.060547 163.68359 29.060547 z M 67.380859 29.070312 C 68.140859 29.070312 68.541458 29.739823 68.328125 30.785156 C 68.105458 31.873156 67.381771 32.503906 66.648438 32.503906 C 65.775104 32.503906 65.522505 31.659823 65.701172 30.785156 C 65.947839 29.577156 66.695526 29.070312 67.380859 29.070312 z M 131.91406 29.070312 C 132.7954 29.070312 133.04843 29.909344 132.87109 30.777344 C 132.62309 31.99201 131.87674 32.503906 131.19141 32.503906 C 130.42474 32.503906 130.03143 31.830677 130.24609 30.777344 C 130.46609 29.697344 131.19006 29.070312 131.91406 29.070312 z M 63.177734 30.734375 L 63.408203 30.734375 L 63.367188 30.939453 C 63.213854 31.688786 62.576536 32.537109 61.783203 32.537109 C 61.171203 32.537109 60.953823 32.11937 61.035156 31.720703 C 61.231156 30.75937 62.533734 30.734375 63.177734 30.734375 z M 72.070312 30.734375 L 72.296875 30.734375 L 72.255859 30.939453 C 72.102526 31.688786 71.465828 32.537109 70.673828 32.537109 C 70.061828 32.537109 69.844448 32.11937 69.925781 31.720703 C 70.121781 30.75937 71.424979 30.734375 72.070312 30.734375 z M 76.445312 32.212891 C 76.315979 32.212891 76.235651 32.288635 76.208984 32.417969 L 76.150391 32.707031 C 76.122391 32.840365 76.173401 32.917969 76.302734 32.917969 L 76.572266 32.917969 C 76.702932 32.917969 76.785833 32.840365 76.8125 32.707031 L 76.871094 32.417969 C 76.896427 32.288635 76.847464 32.212891 76.716797 32.212891 L 76.445312 32.212891 z M 169.19922 32.248047 C 169.06722 32.248047 168.98565 32.324318 168.95898 32.458984 L 168.9082 32.707031 C 168.8802 32.841698 168.92988 32.917969 169.06055 32.917969 L 169.30469 32.917969 C 169.43669 32.917969 169.51826 32.841698 169.54492 32.707031 L 169.5957 32.458984 C 169.6237 32.324318 169.57341 32.248047 169.44141 32.248047 L 169.19922 32.248047 z "
           transform="matrix(0.75000002,0,0,-0.75000002,40.7349,113.2263)" /></g></g></g></svg>
