<svg width="20" height="20" viewBox="0 0 20 20" fill="none" xmlns="http://www.w3.org/2000/svg">
<path d="M15.3964 12.8742C14.5478 12.8754 13.7272 13.1748 13.0806 13.719L8.17602 10.8762C8.2016 10.6305 8.2016 10.3828 8.17602 10.1371L13.0806 7.29432C13.731 7.83564 14.5538 8.13167 15.4033 8.13004C16.2529 8.12841 17.0745 7.82922 17.7227 7.28541C18.371 6.7416 18.8042 5.98822 18.9456 5.15855C19.0871 4.32888 18.9277 3.4764 18.4956 2.75193C18.0635 2.02746 17.3867 1.47769 16.5847 1.1999C15.7828 0.922105 14.9075 0.934184 14.1137 1.234C13.3199 1.53382 12.6588 2.10205 12.2473 2.83816C11.8358 3.57427 11.7004 4.43082 11.8651 5.25626L7.15032 8.00184C6.64754 7.50171 6.00619 7.16064 5.30752 7.02182C4.60886 6.88301 3.88431 6.9527 3.22567 7.22207C2.56703 7.49145 2.00393 7.94838 1.60772 8.53498C1.2115 9.12158 1 9.81145 1 10.5172C1 11.223 1.2115 11.9128 1.60772 12.4994C2.00393 13.086 2.56703 13.543 3.22567 13.8123C3.88431 14.0817 4.60886 14.1514 5.30752 14.0126C6.00619 13.8738 6.64754 13.5327 7.15032 13.0326L11.8672 15.7782C11.7303 16.4987 11.8212 17.2435 12.1275 17.911C12.4337 18.5785 12.9404 19.1362 13.5785 19.508C14.2165 19.8798 14.9548 20.0475 15.6927 19.9884C16.4306 19.9293 17.1321 19.6461 17.7015 19.1776C18.2709 18.709 18.6805 18.0779 18.8744 17.3703C19.0683 16.6628 19.0371 15.9132 18.785 15.2238C18.5329 14.5344 18.0722 13.9389 17.4658 13.5184C16.8593 13.0979 16.1367 12.8729 15.3964 12.8742Z" fill="#958AA8"/>
</svg>
