<svg width="20" height="20" viewBox="0 0 20 20" fill="none" xmlns="http://www.w3.org/2000/svg">
<path d="M9.99912 0C13.3868 0 16.1436 2.96611 16.1436 6.61242C16.1436 10.2574 13.3869 13.2236 9.99912 13.2236C6.61137 13.2236 3.85463 10.2587 3.85463 6.61242C3.85463 2.9662 6.61137 0 9.99912 0ZM19.9994 16.3797C19.9994 18.3756 18.4897 20 16.6347 20H3.36476C1.50972 20 0 18.3756 0 16.3797V15.9588C0.714714 14.1295 1.84012 12.499 3.30044 11.2584C4.723 13.6247 7.19178 15.196 10 15.196C12.8082 15.196 15.2761 13.6234 16.6996 11.2584C18.16 12.499 19.2842 14.1295 20 15.9575V16.3797L19.9994 16.3797Z" fill="#958AA8"/>
</svg>
